<svg width="65" height="55" viewBox="0 0 65 55" fill="none" xmlns="http://www.w3.org/2000/svg">
<path d="M60.5752 26.2875L64.1752 24.925V19.525L61.0252 18.3375V13.6625L57.8502 12.075H42.5002C42.0502 7.225 37.4627 3.3625 31.7877 3.125V0H30.6627V3.125C24.9877 3.3625 20.4002 7.225 19.9502 12.075H5.9502L2.1877 13.6375V18.3875L0.0126953 19.575V24.8875L2.9877 26.225H3.2252V53.6H2.0752V54.725H28.9127V53.6H27.7252V26.2625H35.8377V53.6125H34.6877V54.7375H61.5502V53.6125H60.3627V26.2875H60.6002H60.5752ZM41.4377 13.2V18.1625H21.0377V13.2H41.4252H41.4377ZM59.9127 14.3625V18.1625H42.5627V13.2H57.6002L59.9127 14.3625ZM31.2377 4.225C36.5502 4.225 40.9127 7.675 41.3877 12.075H21.0877C21.5627 7.675 25.9252 4.225 31.2377 4.225V4.225ZM3.3002 14.375L6.0627 13.2H19.9127V18.1625H3.3002V14.3875V14.375ZM1.1252 24.1625V20.2375L2.8877 19.275H60.3752L63.0627 20.2875V24.1375L60.3752 25.15H3.3252L1.1252 24.1625V24.1625ZM50.2752 53.6H45.8877V26.3H50.2752V53.6ZM17.6502 53.6H13.2627V26.3H17.6502V53.6ZM8.7127 26.3V53.6H4.3252V26.3H8.7127ZM10.9877 53.6125H9.8377V26.2375H12.1377V53.6H10.9877V53.6125ZM22.2002 53.6125V26.3H26.5877V53.6H22.2002V53.6125ZM21.0752 53.6125H18.7752V26.25H21.0752V53.6125ZM41.3377 26.3V53.6H36.9502V26.3H41.3377ZM43.6127 53.6125H42.4627V26.275H44.7627V53.6125H43.6127ZM54.8252 53.6125V26.3H59.2127V53.6H54.8252V53.6125ZM53.7002 53.6125H51.4002V26.275H53.7002V53.6125Z" fill="#BF9C5A"/>
</svg>
