<svg width="12" height="90" viewBox="0 0 12 90" fill="none" xmlns="http://www.w3.org/2000/svg">
<path d="M-0.000374905 11.509C-0.000374864 10.5769 0.353196 9.70902 0.99605 9.06617C1.12462 8.9376 1.38176 8.9376 1.51033 9.06617L5.91387 13.4697L10.3174 9.06617C10.3817 9.00188 10.4781 8.96973 10.5746 8.96973C10.671 8.96973 10.7674 9.00188 10.8317 9.06617C11.4746 9.70902 11.8281 10.5769 11.8281 11.509C11.8281 12.4411 11.4746 13.309 10.8317 13.9518L6.17102 18.6125C6.04245 18.7411 5.78531 18.7411 5.65673 18.6125L0.99605 13.9518C0.385339 13.309 -0.000374946 12.4411 -0.000374905 11.509ZM1.31748 9.86974C0.963907 10.3519 0.771052 10.8983 0.771052 11.509C0.771052 12.2483 1.06034 12.9233 1.57462 13.4376L5.97816 17.8411L10.3496 13.4376C10.8638 12.9233 11.1531 12.2483 11.1531 11.509C11.1531 10.8983 10.9603 10.3519 10.6067 9.86974L6.2353 14.2411C6.10673 14.3697 5.84959 14.3697 5.72102 14.2411L1.31748 9.86974Z" fill="#909090"/>
<path d="M-0.000374905 6.84836C-0.000374864 5.91622 0.353196 5.04838 0.99605 4.40553C1.12462 4.27695 1.38176 4.27695 1.51033 4.40553L5.91387 8.80905L10.3174 4.40553C10.3817 4.34124 10.4781 4.30908 10.5746 4.30908C10.671 4.30908 10.7674 4.34124 10.8317 4.40553C11.4746 5.04838 11.8281 5.91622 11.8281 6.84836C11.8281 7.7805 11.4746 8.64834 10.8317 9.29119L6.17102 13.9519C6.10673 14.0162 6.0103 14.0483 5.91387 14.0483C5.81745 14.0483 5.72102 14.0162 5.65673 13.9519L0.99605 9.29119C0.385339 8.64834 -0.000374946 7.7805 -0.000374905 6.84836ZM1.31748 5.20909C0.963907 5.69123 0.771052 6.23765 0.771052 6.84836C0.771052 7.58764 1.06034 8.26264 1.57462 8.77692L5.97816 13.1805L10.3817 8.77692C10.896 8.26264 11.1853 7.58764 11.1853 6.84836C11.1853 6.23765 10.9924 5.69123 10.6388 5.20909L6.20316 9.58049C6.07459 9.70906 5.81745 9.70906 5.68888 9.58049L1.31748 5.20909Z" fill="#909090"/>
<path d="M-0.000374905 2.53926C-0.000374864 1.60712 0.353196 0.739281 0.99605 0.0964275C1.12462 -0.0321431 1.38176 -0.0321431 1.51033 0.0964275L5.91387 4.49998L10.3174 0.0964279C10.446 -0.0321427 10.7031 -0.0321427 10.8317 0.0964279C11.4746 0.739281 11.8281 1.60713 11.8281 2.53926C11.8281 3.4714 11.4746 4.33926 10.8317 4.98212L6.17102 9.6428C6.04245 9.77137 5.78531 9.77137 5.65673 9.6428L0.99605 4.98212C0.385339 4.33926 -0.000374946 3.4714 -0.000374905 2.53926ZM1.31748 0.899994C0.963907 1.38213 0.771052 1.92855 0.771052 2.53926C0.771052 3.27854 1.06034 3.95354 1.57462 4.46782L5.97816 8.87137L10.3817 4.46782C10.896 3.95354 11.1853 3.27854 11.1853 2.53926C11.1853 1.92855 10.9924 1.38213 10.6388 0.899994L6.26744 5.27139C6.13887 5.39996 5.88173 5.39996 5.75316 5.27139L1.31748 0.899994Z" fill="#909090"/>
<path d="M5.5947 67.7266L5.5947 4.66266C5.5947 4.46981 5.75542 4.30908 5.94827 4.30908C6.14113 4.30908 6.33398 4.46981 6.33398 4.66266L6.33398 67.7266C6.33398 67.9194 6.17327 68.0801 5.94827 68.0801C5.72327 68.0801 5.5947 67.9516 5.5947 67.7266Z" fill="#909090"/>
<path d="M0.0320777 76.8867C0.0320777 76.7903 0.0642213 76.726 0.128507 76.6617L1.89635 74.476C1.96064 74.3796 2.05706 74.3474 2.18563 74.3474C2.28206 74.3474 2.41063 74.4117 2.47492 74.476L5.94632 78.7831L9.41773 74.476C9.48202 74.3796 9.57845 74.3474 9.70702 74.3474C9.83559 74.3474 9.93202 74.4117 9.9963 74.476L11.7641 76.6617C11.8606 76.7581 11.8606 76.9188 11.8284 77.0474L6.2999 89.6473C6.23561 89.7759 6.10704 89.8723 5.94632 89.8723C5.78561 89.8723 5.65704 89.7759 5.59276 89.6473L0.0642174 77.0474C0.0642175 76.9831 0.0320777 76.9188 0.0320777 76.8867ZM2.18563 75.2796L0.835644 76.9188L5.94632 88.5223L11.057 76.9188L9.70702 75.2796L6.23561 79.5867C6.17132 79.6831 6.07489 79.7152 5.94632 79.7152C5.8499 79.7152 5.72133 79.6509 5.65704 79.5867L2.18563 75.2796Z" fill="#909090"/>
<path d="M4.2104 69.6216C4.2104 68.6573 4.98183 67.8538 5.97825 67.8538C6.94253 67.8538 7.74609 68.6252 7.74609 69.6216C7.74609 70.5859 6.97467 71.3573 5.97825 71.3573C4.98182 71.3895 4.2104 70.618 4.2104 69.6216ZM6.97467 69.6216C6.97467 69.0752 6.52467 68.6252 5.9461 68.6252C5.36753 68.6252 4.91754 69.0752 4.91754 69.6216C4.91754 70.168 5.36753 70.618 5.9461 70.618C6.52467 70.618 6.97467 70.2002 6.97467 69.6216Z" fill="#909090"/>
<path d="M4.2104 72.4514C4.2104 71.4872 4.98183 70.6836 5.97825 70.6836C6.94253 70.6836 7.74609 71.455 7.74609 72.4514C7.74609 73.4157 6.97467 74.1872 5.97825 74.1872C4.98182 74.2193 4.2104 73.4157 4.2104 72.4514ZM6.97467 72.4514C6.97467 71.905 6.52467 71.4229 5.9461 71.4229C5.36753 71.4229 4.91754 71.8729 4.91754 72.4514C4.91754 72.9979 5.36753 73.4479 5.9461 73.4479C6.52467 73.4479 6.97467 73.03 6.97467 72.4514Z" fill="#909090"/>
<path d="M4.2104 75.2791C4.2104 74.3148 4.98183 73.5112 5.97825 73.5112C6.94253 73.5112 7.74609 74.2827 7.74609 75.2791C7.74609 76.2434 6.97467 77.0148 5.97825 77.0148C4.98182 77.0469 4.2104 76.2434 4.2104 75.2791ZM6.97467 75.2791C6.97467 74.7327 6.52467 74.2505 5.9461 74.2505C5.36753 74.2505 4.91754 74.7005 4.91754 75.2791C4.91754 75.8255 5.36753 76.2755 5.9461 76.2755C6.52467 76.2755 6.97467 75.8255 6.97467 75.2791Z" fill="#909090"/>
</svg>
