<svg width="29" height="29" viewBox="0 0 29 29" fill="none" xmlns="http://www.w3.org/2000/svg">
<path d="M23.86 7.04667L13.6933 13.4467L12.66 15.56L14.9733 15.1333L23.86 7.04667ZM14.1667 14.42C14.0867 14.3133 14.1133 14.1733 14.2133 14.0933C14.32 14.0133 14.46 14.0333 14.54 14.14C14.6133 14.24 14.6 14.3867 14.4933 14.4667C14.3933 14.54 14.2467 14.52 14.1667 14.42Z" fill="#B49A5D"/>
<path d="M8.98 9.58667L13.68 15.0933L15.96 15.68L15.0733 13.5L8.98667 9.58667H8.98ZM14.5333 14.4333C14.4467 14.5333 14.3 14.54 14.2067 14.4533C14.1067 14.3667 14.1 14.2267 14.1867 14.1267C14.2667 14.0333 14.4133 14.02 14.5133 14.1067C14.6067 14.1867 14.62 14.34 14.5333 14.4333Z" fill="#B49A5D"/>
<path d="M8.39333 28.6667L0 20.2733V8.39333L8.39333 0H20.2733L28.6667 8.39333V20.2733L20.2733 28.6667H8.39333ZM19.7133 27.3333L27.3267 19.72V8.94667L19.72 1.33333H8.94667L1.33333 8.94667V19.72L8.94667 27.3333H19.72H19.7133Z" fill="#B49A5D"/>
</svg>
