<svg width="41" height="41" viewBox="0 0 41 41" fill="none" xmlns="http://www.w3.org/2000/svg">
<path d="M19.169 32.8C12.2548 36.2929 10.6644 37.1412 4.8383 41C1.20539 35.0787 0 30.2718 0 23.9846C0 14.8365 2.05921 9.04828 8.11964 0L11.8865 2.04584C8.72234 6.75294 5.67538 12.8905 5.67538 19.1611C5.67538 24.101 7.0147 25.914 8.83953 25.914C10.5472 25.914 12.5896 24.4669 14.2973 23.0199L19.1523 32.7834L19.169 32.8ZM41 32.8C34.0858 36.2929 32.5288 37.1412 26.686 41C23.0531 35.0953 21.831 30.2718 21.831 24.0012C21.831 14.8365 23.9069 9.04827 29.9673 0.0166329L33.7174 2.06247C30.5533 6.76957 27.5398 12.9071 27.5398 19.1777C27.5398 24.1176 28.8624 25.9306 30.6872 25.9306C32.3949 25.9306 34.4541 24.4836 36.1617 23.0365L41 32.8Z" fill="#B49A5D"/>
</svg>
