<svg width="41" height="41" viewBox="0 0 41 41" fill="none" xmlns="http://www.w3.org/2000/svg">
<path d="M21.831 8.2C28.7452 4.7071 30.3356 3.85882 36.1617 -4.22978e-07C39.7946 5.9213 41 10.7282 41 17.0154C41 26.1635 38.9408 31.9517 32.8804 41L29.1135 38.9542C32.2777 34.2471 35.3246 28.1095 35.3246 21.8389C35.3246 16.899 33.9853 15.086 32.1605 15.086C30.4528 15.086 28.4104 16.5331 26.7027 17.9801L21.8477 8.21663L21.831 8.2ZM2.86747e-06 8.2C6.91425 4.7071 8.47122 3.85882 14.314 -2.33296e-06C17.9469 5.90466 19.1691 10.7282 19.1691 16.9988C19.169 26.1635 17.0931 31.9517 11.0327 40.9834L7.28257 38.9375C10.4467 34.2304 13.4602 28.0929 13.4602 21.8223C13.4602 16.8824 12.1376 15.0694 10.3128 15.0694C8.60515 15.0694 6.54594 16.5164 4.8383 17.9635L2.86747e-06 8.2Z" fill="#B49A5D"/>
</svg>
