<svg width="655" height="734" viewBox="0 0 655 734" fill="none" xmlns="http://www.w3.org/2000/svg">
<path d="M1 70.415V663.585L65.3165 733H412.004H589.683L654 663.585V70.415L589.683 1H412.004H65.3165L1 70.415Z" stroke="#B49A5D" stroke-width="0.804" stroke-miterlimit="10"/>
<path d="M1 70.415V663.585L65.3165 733H412.004H589.683L654 663.585V70.415L589.683 1H412.004H65.3165L1 70.415Z" stroke="#B49A5D" stroke-width="0.804" stroke-miterlimit="10"/>
<path d="M640.284 657.44L583.991 718.195H71.0124L14.7194 657.44V76.5605L71.0124 15.8049H583.991L640.284 76.5605V657.44Z" stroke="#B49A5D" stroke-width="0.804" stroke-miterlimit="10"/>
<path d="M1.13147 663.585L14.8489 657.44" stroke="#B49A5D" stroke-width="0.804" stroke-miterlimit="10"/>
<path d="M15.2432 76.7001L1.52576 70.6943" stroke="#B49A5D" stroke-width="0.804" stroke-miterlimit="10"/>
<path d="M71.2693 16.2237L65.7047 1.41895" stroke="#B49A5D" stroke-width="0.804" stroke-miterlimit="10"/>
<path d="M640.282 657.44L654 663.585" stroke="#B49A5D" stroke-width="0.804" stroke-miterlimit="10"/>
<path d="M640.282 76.5604L654 70.415" stroke="#B49A5D" stroke-width="0.804" stroke-miterlimit="10"/>
<path d="M583.989 15.8048L589.683 1" stroke="#B49A5D" stroke-width="0.804" stroke-miterlimit="10"/>
<path d="M70.7516 718.056L65.0576 732.861" stroke="#B49A5D" stroke-width="0.804" stroke-miterlimit="10"/>
<path d="M583.868 717.776L589.562 732.581" stroke="#B49A5D" stroke-width="0.804" stroke-miterlimit="10"/>
</svg>
