<svg width="27" height="25" viewBox="0 0 27 25" fill="none" xmlns="http://www.w3.org/2000/svg">
<path d="M25.599 3.49668H22.5033V2.22018C22.5033 1.30134 21.7572 0.555176 20.8383 0.555176C19.9195 0.555176 19.1733 1.30134 19.1733 2.22018V3.49668H7.82665V2.22018C7.82665 1.30134 7.08048 0.555176 6.16165 0.555176C5.24282 0.555176 4.49665 1.30134 4.49665 2.22018V3.49668H1.40098C1.13582 3.49668 0.919983 3.71251 0.919983 3.97768V22.3358L3.02898 24.4448H23.971L26.08 22.3358V3.97768C26.08 3.71251 25.8641 3.49668 25.599 3.49668ZM3.46065 23.4828L1.88815 21.9103V9.16384H25.1118V21.9103L23.5393 23.4828H3.46065ZM6.16165 7.14734C7.08048 7.14734 7.82665 6.40118 7.82665 5.48234V4.45868H19.1733V5.48234C19.1733 6.40118 19.9195 7.14734 20.8383 7.14734C21.7572 7.14734 22.5033 6.40118 22.5033 5.48234V4.45868H25.1118V8.20184H1.88815V4.45868H4.49665V5.48234C4.49665 6.40118 5.24282 7.14734 6.16165 7.14734ZM5.45865 2.22018C5.45865 1.83168 5.77315 1.51718 6.16165 1.51718C6.55015 1.51718 6.85848 1.83168 6.85848 2.22018V5.48234C6.85848 5.86468 6.54398 6.17918 6.16165 6.17918C5.77932 6.17918 5.45865 5.86468 5.45865 5.48234V2.22018V2.22018ZM21.5413 5.47618C21.5413 5.67351 21.4735 5.84618 21.3501 5.98184C21.2083 6.12368 21.0357 6.19768 20.8383 6.19768C20.4498 6.19768 20.1476 5.88318 20.1415 5.48234V2.21401C20.1415 2.02284 20.2031 1.85634 20.345 1.71451C20.4745 1.57884 20.641 1.50484 20.8198 1.50484H20.8383C21.2207 1.50484 21.529 1.81934 21.5413 2.22018V5.47618Z" fill="#B49A5D"/>
</svg>
