<svg width="53" height="64" viewBox="0 0 53 64" fill="none" xmlns="http://www.w3.org/2000/svg">
<path d="M51.502 62.833H39.802L42.052 50.3955L42.8145 50.533C42.8145 50.533 42.8895 50.533 42.9145 50.533C43.177 50.533 43.4145 50.3455 43.4645 50.0705C43.527 49.7705 43.3145 49.4705 43.0145 49.408L42.2395 49.258L43.7145 41.083L44.5395 41.233C44.5395 41.233 44.6145 41.233 44.6395 41.233C44.902 41.233 45.1395 41.0455 45.1895 40.7705C45.252 40.4705 45.0395 40.1705 44.7395 40.108L43.9145 39.958L45.3895 31.783L46.2645 31.9455C46.2645 31.9455 46.3395 31.9455 46.3645 31.9455C46.627 31.9455 46.8645 31.758 46.9145 31.483C46.977 31.183 46.7645 30.883 46.4645 30.833L45.5895 30.6705L47.1145 22.283L48.0395 22.458C48.0395 22.458 48.1145 22.458 48.1395 22.458C48.402 22.458 48.6395 22.2705 48.6895 21.9955C48.752 21.6955 48.5395 21.3955 48.2395 21.3455L47.302 21.1705L47.9145 17.7955C47.927 17.7205 47.9145 17.658 47.9145 17.583L46.6895 11.608C46.6395 11.383 46.4645 11.208 46.2395 11.1705L44.9895 10.933L46.202 4.48303L47.1645 4.65803C47.1645 4.65803 47.2395 4.65803 47.2645 4.65803C47.527 4.65803 47.7645 4.47053 47.8145 4.19553C47.877 3.89553 47.6645 3.59553 47.3645 3.54553L45.852 3.25803L29.6395 0.295531L28.127 0.00803112C27.827 -0.0419689 27.527 0.145531 27.4645 0.458031C27.402 0.758031 27.6145 1.05803 27.9145 1.10803L28.8645 1.28303L27.652 7.73303L26.127 7.44553C25.902 7.40803 25.677 7.49553 25.552 7.69553L22.277 12.7205C22.277 12.7205 22.2145 12.8455 22.1895 12.9205L21.5395 16.408L20.8645 16.283C20.5645 16.233 20.2645 16.4205 20.202 16.733C20.1395 17.033 20.352 17.333 20.652 17.383L21.327 17.508L19.7645 25.883L19.0895 25.758C18.7895 25.708 18.4895 25.8955 18.427 26.208C18.3645 26.508 18.577 26.808 18.877 26.858L19.552 26.983L18.027 35.1455L17.352 35.0205C17.052 34.9705 16.752 35.1705 16.6895 35.4705C16.627 35.7705 16.8395 36.0705 17.1395 36.133L17.8145 36.258L16.2895 44.4205L15.6145 44.2955C15.3145 44.2455 15.0145 44.4455 14.952 44.7455C14.8895 45.0455 15.102 45.3455 15.402 45.408L16.077 45.533L12.8395 62.8205H0.814453C0.501953 62.8205 0.251953 63.0705 0.251953 63.383C0.251953 63.6955 0.501953 63.9455 0.814453 63.9455H51.502C51.8145 63.9455 52.0645 63.6955 52.0645 63.383C52.0645 63.0705 51.8145 62.8205 51.502 62.8205V62.833ZM29.9895 1.50803L45.127 4.34553L43.927 10.7955L41.152 10.283L41.752 7.05803C41.8145 6.75803 41.602 6.45803 41.302 6.40803C41.002 6.34553 40.702 6.54553 40.6395 6.85803L40.0395 10.083L38.2145 9.74553L38.8145 6.52053C38.877 6.22053 38.6645 5.92053 38.3645 5.87053C38.0645 5.80803 37.7645 6.00803 37.702 6.32053L37.102 9.54553L35.277 9.20803L35.877 5.98303C35.9395 5.68303 35.727 5.38303 35.427 5.32053C35.127 5.25803 34.827 5.45803 34.7645 5.77053L34.1645 8.99553L32.3395 8.65803L32.9395 5.43303C33.002 5.13303 32.7895 4.83303 32.4895 4.77053C32.1895 4.70803 31.8895 4.90803 31.827 5.22053L31.227 8.44553L28.752 7.98303L29.9645 1.53303L29.9895 1.50803ZM23.302 13.258L26.3145 8.64553L28.0145 8.95803L31.5895 9.62053L37.4645 10.7205L40.3895 11.2705L45.6895 12.258L46.8145 17.758L46.227 21.0205L22.6645 16.608L23.2895 13.233L23.302 13.258ZM22.4645 17.733L46.027 22.1455L44.502 30.533L20.8895 26.1205L22.452 17.7455L22.4645 17.733ZM20.6895 27.208L44.302 31.6205L42.827 39.7955L19.1645 35.3705L20.6895 27.208ZM18.952 36.4705L42.6145 40.8955L41.1395 49.0705L17.427 44.633L18.952 36.4705V36.4705ZM17.2145 45.733L40.9395 50.1705L38.652 62.808H36.352L37.552 56.408C38.002 53.983 36.402 51.6455 33.9895 51.1955C32.8145 50.983 31.627 51.2205 30.6395 51.8955C29.652 52.5705 28.9895 53.583 28.777 54.758L27.277 62.7955H25.727L27.2645 54.608C27.7145 52.183 26.1145 49.8455 23.702 49.3955C21.2895 48.9455 18.9395 50.5455 18.4895 52.958L16.652 62.7955H14.052L17.252 45.7205L17.2145 45.733ZM35.202 62.808H28.402L29.8645 54.983C30.027 54.108 30.527 53.3455 31.2645 52.8455C32.002 52.3455 32.8895 52.158 33.7645 52.3205C35.577 52.658 36.777 54.408 36.4395 56.2205L35.202 62.8205V62.808ZM24.5645 62.808H17.7645L19.5645 53.183C19.902 51.3705 21.652 50.1705 23.4645 50.508C25.277 50.8455 26.477 52.5955 26.127 54.408L24.552 62.808H24.5645Z" fill="#BF9C5A"/>
</svg>
