<svg width="67" height="48" viewBox="0 0 67 48" fill="none" xmlns="http://www.w3.org/2000/svg">
<path d="M52.6654 21.5847H51.8614V18.8631C51.8614 16.942 50.307 15.4478 48.431 15.4478C46.5014 15.4478 45.0006 16.9954 45.0006 18.8631V21.5847H36.4783V13.0464H39.1582C41.0878 13.0464 42.5886 11.4988 42.5886 9.63109C42.5886 7.70998 41.0342 6.21578 39.1582 6.21578H36.4783V5.41531C36.4783 3.4942 34.9239 2 33.0479 2C31.1183 2 29.6175 3.54756 29.6175 5.41531V6.21578H26.9375C25.0079 6.21578 23.5071 7.76334 23.5071 9.63109C23.5071 11.5522 25.0615 13.0464 26.9375 13.0464H29.6175V21.5847H21.0951V18.8631C21.0951 16.942 19.5407 15.4478 17.6648 15.4478C15.7888 15.4478 14.2344 16.9954 14.2344 18.8631V21.5847H13.4304C11.5008 21.5847 10 23.1322 10 25C10 26.9211 11.5544 28.4153 13.4304 28.4153H14.2344V31.0835C14.2344 33.0046 15.7888 34.4988 17.6648 34.4988C19.5943 34.4988 21.0951 32.9513 21.0951 31.0835V28.4153H29.5103V36.9536H26.8303C24.9007 36.9536 23.3999 38.5012 23.3999 40.3689C23.3999 42.2367 24.9543 43.7842 26.8303 43.7842H29.5103V44.5847C29.5103 46.5058 31.0647 48 32.9407 48C34.8703 48 36.3711 46.4524 36.3711 44.5847V43.7842H39.051C40.9806 43.7842 42.4814 42.2367 42.4814 40.3689C42.4814 38.5012 40.927 36.9536 39.051 36.9536H36.3711V28.4153H44.8934V31.0835C44.8934 33.0046 46.4478 34.4988 48.3238 34.4988C50.1998 34.4988 51.7542 32.9513 51.7542 31.0835V28.4153H52.5582C54.4878 28.4153 55.9885 26.8678 55.9885 25C56.1493 23.1322 54.595 21.5847 52.6654 21.5847Z" fill="#BA1B00"/>
<rect y="6" width="67" height="3" fill="white"/>
<rect width="67" height="3" fill="white"/>
<rect y="11" width="67" height="3" fill="white"/>
<rect y="16" width="67" height="3" fill="white"/>
<rect y="21" width="67" height="3" fill="white"/>
</svg>
