<svg width="21" height="26" viewBox="0 0 21 26" fill="none" xmlns="http://www.w3.org/2000/svg">
<path d="M19.851 7.29371L16.743 7.29371L16.647 4.22271L12.699 0.165039L9.12303 0.165039L5.16303 4.23504L5.31303 7.29371L1.97103 7.29371L0.957031 21.6559L4.92303 25.732L16.899 25.732L20.865 21.6559L19.845 7.29371L19.851 7.29371ZM6.08103 4.59887L9.49503 1.09004L12.327 1.09004L15.759 4.61737L15.837 7.29371L6.21303 7.29371L6.08103 4.59887ZM16.527 24.807L5.29503 24.807L1.88103 21.2982L2.81103 8.21871L5.35503 8.21871L5.54103 11.9927L6.44103 11.9434L6.25503 8.21254L15.867 8.21254L15.981 11.9804L16.881 11.9495L16.767 8.21254L19.011 8.21254L19.935 21.292L16.521 24.8009L16.527 24.807Z" fill="#BF9C5A"/>
</svg>
