<svg width="18" height="40" viewBox="0 0 18 40" fill="none" xmlns="http://www.w3.org/2000/svg">
<path d="M8.44759 40L8.41195 27.3298C8.41195 24.1885 7.94864 22.2339 6.66562 19.3368C7.84172 17.103 8.34067 14.5899 8.55451 11.9721C5.31132 12.1117 3.24423 12.7051 0.5 13.6126V9.49389C2.78092 10.2967 5.13312 11.0646 7.94863 11.0646H8.55451C8.55451 6.52705 7.91299 3.83944 5.98847 0H12.0115C10.1226 3.80454 9.44549 6.52705 9.44549 11.0646H10.0514C12.8669 11.0646 15.1834 10.2967 17.5 9.49389V13.6126C14.7914 12.6702 12.6887 12.0768 9.44549 11.9721C9.65933 14.5899 10.1939 17.103 11.3344 19.3368C10.087 22.2688 9.62369 24.1885 9.62369 27.3298L9.58805 40H8.44759Z" fill="black"/>
</svg>
