<svg width="68" height="65" viewBox="0 0 68 65" fill="none" xmlns="http://www.w3.org/2000/svg">
<path d="M13.562 64.0477C13.45 64.0477 13.338 64.0197 13.254 63.9497C13.086 63.8377 13.016 63.6277 13.044 63.4317L16.894 41.0177L0.555991 25.0437C0.415991 24.9037 0.359991 24.6937 0.415991 24.4977C0.471991 24.3017 0.63999 24.1617 0.83599 24.1337L23.348 20.8437L33.512 0.375741C33.61 0.179741 33.82 0.109741 33.988 0.109741C34.156 0.109741 34.366 0.179741 34.464 0.375741L44.53 20.7737L67.14 24.1337C67.336 24.1617 67.504 24.3017 67.574 24.4977C67.63 24.6937 67.574 24.9037 67.434 25.0437L51.152 40.9057L54.96 63.4317C54.988 63.6277 54.918 63.8377 54.75 63.9497C54.666 64.0197 54.554 64.0477 54.442 64.0477C54.358 64.0477 54.274 64.0337 54.19 63.9917L34.058 53.4077L13.8 63.9917C13.73 64.0337 13.646 64.0477 13.548 64.0477H13.562ZM34.002 1.98574C34.002 1.98574 33.904 2.01374 33.89 2.05574L24.258 21.5577C24.188 21.7117 24.034 21.8237 23.866 21.8517L2.33399 25.0017C2.33399 25.0017 2.23599 25.0437 2.22199 25.0857C2.20799 25.1277 2.22199 25.1837 2.24999 25.2257L17.832 40.4017C17.958 40.5277 18.014 40.6957 17.986 40.8777L14.304 62.3117C14.304 62.3117 14.304 62.4097 14.36 62.4377C14.388 62.4517 14.416 62.4657 14.444 62.4657C14.472 62.4657 14.486 62.4657 14.5 62.4517L33.75 52.3297C33.82 52.2877 33.918 52.2737 34.002 52.2737C34.086 52.2737 34.17 52.3017 34.254 52.3297L53.504 62.4517C53.504 62.4517 53.546 62.4657 53.56 62.4657C53.588 62.4657 53.616 62.4657 53.644 62.4377C53.686 62.4097 53.7 62.3537 53.7 62.3117L50.018 40.8777C49.99 40.7097 50.046 40.5277 50.172 40.4017L65.754 25.2257C65.754 25.2257 65.81 25.1417 65.782 25.0857C65.754 25.0297 65.726 25.0017 65.67 25.0017L44.138 21.8517C43.97 21.8237 43.816 21.7257 43.746 21.5577L34.114 2.05574C34.114 2.05574 34.044 1.98574 34.002 1.98574V1.98574Z" fill="#B49A5D"/>
</svg>
