<svg width="66" height="43" viewBox="0 0 66 43" fill="none" xmlns="http://www.w3.org/2000/svg">
<path d="M65.4254 26.6L51.0129 11.2125C50.9129 11.1 50.7629 11.0375 50.6129 11.0375C50.4629 11.0375 50.3129 11.0875 50.2129 11.1875L43.4754 17.5875L31.0254 0.475C30.9379 0.35 30.8004 0.275 30.6379 0.25C30.6254 0.25 30.6129 0.25 30.6004 0.25C30.6004 0.25 30.5879 0.25 30.5754 0.25C30.5504 0.25 30.5379 0.25 30.5129 0.2625C30.4629 0.2625 30.4129 0.275 30.3629 0.3C30.3254 0.3125 30.3004 0.325 30.2754 0.35C30.2379 0.375 30.2004 0.4125 30.1629 0.45C30.1504 0.4625 30.1254 0.475 30.1129 0.5L18.8629 16.6125L12.1754 11.175C11.9379 10.9875 11.6004 11.0125 11.4004 11.2375L1.13795 22.875C0.937947 23.1125 0.950447 23.4625 1.18795 23.675C1.30045 23.775 1.42545 23.8125 1.56295 23.8125C1.71295 23.8125 1.87545 23.75 1.98795 23.625L11.8879 12.3875L18.2254 17.5375L6.92545 33.725C6.75045 33.975 6.81295 34.325 7.06295 34.5125C7.16295 34.575 7.27545 34.6125 7.38795 34.6125C7.56295 34.6125 7.73795 34.525 7.85045 34.375L29.7629 2.925L27.5379 23.175C27.5379 23.175 27.5379 23.2 27.5379 23.2125C27.5379 23.2875 27.5379 23.35 27.5754 23.425C27.5754 23.4375 27.5754 23.45 27.5754 23.475L31.4754 32.1125L21.2004 42.0125C20.9754 42.225 20.9754 42.5875 21.1879 42.8125C21.3004 42.925 21.4504 42.9875 21.5879 42.9875C21.7254 42.9875 21.8629 42.9375 21.9754 42.825L32.5379 32.65C32.7129 32.4875 32.7629 32.225 32.6629 32.0125L29.4129 24.8L44.2004 34.65C44.3004 34.7125 44.4004 34.75 44.5129 34.75C44.7004 34.75 44.8754 34.6625 44.9879 34.5C45.1629 34.2375 45.0879 33.8875 44.8254 33.725L28.6879 22.975L30.9629 2.3L54.3004 34.375C54.4879 34.625 54.8379 34.675 55.0879 34.5C55.3379 34.3125 55.4004 33.9625 55.2129 33.7125L44.1504 18.5125L50.5754 12.4L64.6004 27.375C64.7129 27.4875 64.8629 27.55 65.0129 27.55C65.1504 27.55 65.2879 27.5 65.4004 27.4C65.6254 27.1875 65.6379 26.8375 65.4254 26.6V26.6Z" fill="#BF9C5A"/>
</svg>
