<svg width="12" height="28" viewBox="0 0 12 28" fill="none" xmlns="http://www.w3.org/2000/svg">
<path d="M5.61007 28L5.58491 19.1309C5.58491 16.9319 5.25786 15.5637 4.3522 13.5358C5.18239 11.9721 5.53459 10.2129 5.68553 8.38045C3.39623 8.47819 1.93711 8.89354 0 9.5288V6.64572C1.61006 7.20768 3.27044 7.7452 5.25786 7.7452H5.68553C5.68553 4.56893 5.2327 2.68761 3.87421 0H8.12579C6.79246 2.66318 6.31447 4.56893 6.31447 7.7452H6.74214C8.72956 7.7452 10.3648 7.20768 12 6.64572V9.5288C10.0881 8.86911 8.60377 8.45375 6.31447 8.38045C6.46541 10.2129 6.84276 11.9721 7.64779 13.5358C6.76729 15.5881 6.44025 16.9319 6.44025 19.1309L6.41509 28H5.61007Z" fill="#B49A5D"/>
</svg>
