<svg width="72" height="56" viewBox="0 0 72 56" fill="none" xmlns="http://www.w3.org/2000/svg">
<path d="M46.0957 4.90173C43.7297 4.90173 41.4197 5.64373 39.3617 7.01573C36.7717 3.29173 32.5577 0.771729 27.9797 0.771729C20.5177 0.771729 13.9657 7.50573 13.9657 15.1777C13.9657 22.8497 20.4337 31.9777 27.9797 31.9777C31.1437 31.9777 34.0977 30.3537 36.4777 27.9317C39.0957 31.6557 42.5677 33.7977 46.0957 33.7977C53.0817 33.7977 59.0737 25.2437 59.0737 18.2577C59.0737 11.2717 53.0117 4.90173 46.0957 4.90173ZM36.2817 26.6297C33.8317 29.2757 30.7657 30.9277 27.9797 30.9277C22.1417 30.9277 15.0157 23.6617 15.0157 15.1777C15.0157 8.19173 21.2037 1.82173 27.9797 1.82173C32.4737 1.82173 36.6737 4.60773 39.0257 8.51373C39.2077 8.80773 39.3757 9.10173 39.5297 9.40973C39.6137 9.57773 39.6977 9.74573 39.7677 9.91373C40.0057 10.4317 40.2157 10.9497 40.3697 11.4817C40.3837 11.5237 40.3977 11.5797 40.4117 11.6217C40.5657 12.1257 40.6777 12.6297 40.7617 13.1337C40.7897 13.2737 40.8037 13.3997 40.8317 13.5257C40.9017 14.0577 40.9437 14.5897 40.9577 15.1077V15.1777C40.9577 15.1777 40.9577 15.2897 40.9577 15.3317C40.9157 19.0837 39.0957 23.4797 36.2957 26.6297H36.2817ZM46.0957 32.7477C42.8617 32.7477 39.6417 30.7177 37.2197 27.1757C37.3737 26.9937 37.5137 26.7977 37.6537 26.6157C37.7657 26.4897 37.8637 26.3637 37.9617 26.2237C38.1577 25.9857 38.3257 25.7337 38.5077 25.4817C38.6897 25.2297 38.8577 24.9637 39.0257 24.6977C39.1097 24.5577 39.2077 24.4037 39.3057 24.2497C39.5437 23.8437 39.7537 23.4517 39.9637 23.0317C39.9917 22.9897 40.0197 22.9477 40.0337 22.8917C41.0137 20.9177 41.6857 18.8177 41.9097 16.7737C41.9097 16.7457 41.9237 16.7177 41.9237 16.6897C41.9657 16.2557 41.9937 15.8217 41.9937 15.4017C41.9937 15.3317 41.9937 15.2477 41.9937 15.1777V15.1077C41.9937 14.5337 41.9377 13.9737 41.8677 13.4137C41.8537 13.3437 41.8397 13.2597 41.8257 13.1757C41.5457 11.2857 40.8737 9.47973 39.9077 7.86973C41.7837 6.60973 43.9117 5.95173 46.0817 5.95173C52.4377 5.95173 58.0097 11.7057 58.0097 18.2577C58.0097 24.8097 52.5077 32.7477 46.0817 32.7477H46.0957Z" fill="#B49A5D"/>
<path d="M67.7117 40.3357C65.2617 38.0397 62.0137 36.7657 58.5417 36.7657H47.9017C45.9417 35.8137 43.7577 35.2957 41.4897 35.2957H14.4977C10.7597 35.2957 7.24573 36.6677 4.59973 39.1597C2.07973 41.5397 0.623727 44.6477 0.483727 47.9797C0.469727 48.1617 0.469727 48.3437 0.469727 48.5257V49.4497L6.41973 55.3997H66.5217L71.5337 50.3877V48.9037C71.5057 45.6697 70.1477 42.6317 67.7117 40.3357ZM6.85373 54.3497L1.53373 49.0297V48.5257C1.53373 45.2777 2.87773 42.2257 5.31373 39.9297C7.73573 37.6477 11.0817 36.3457 14.4977 36.3457H41.4897C43.6317 36.3457 45.7037 36.8357 47.5517 37.7597C48.0837 38.0257 48.5877 38.3337 49.0777 38.6697C49.1617 38.7257 49.2457 38.7817 49.3437 38.8517C49.7917 39.1737 50.2117 39.5097 50.6177 39.8737C50.6317 39.8877 50.6457 39.9157 50.6737 39.9297C53.1097 42.2257 54.4537 45.2777 54.4537 48.5257V49.1837L49.2877 54.3497H6.85373ZM70.4697 49.9677L66.0877 54.3497H50.7717L55.5177 49.6037V48.5257C55.5177 48.3997 55.5177 48.2597 55.5037 48.1337C55.4477 46.0617 54.8737 44.0737 53.8657 42.2957C53.8237 42.2117 53.7677 42.1417 53.7257 42.0717C53.5437 41.7637 53.3617 41.4697 53.1517 41.1757C53.0957 41.1057 53.0257 41.0357 52.9697 40.9517C52.5077 40.3217 51.9757 39.7197 51.3877 39.1597C51.3737 39.1457 51.3597 39.1317 51.3457 39.1177C50.8697 38.6837 50.3657 38.2917 49.8477 37.9277C49.8057 37.8857 49.7637 37.8437 49.7217 37.8157H58.5417C61.6917 37.8157 64.7717 39.0197 66.9977 41.1057C69.2377 43.2197 70.4697 46.0337 70.4697 49.0157V49.9677Z" fill="#B49A5D"/>
</svg>
