<svg width="118" height="20" viewBox="0 0 118 20" fill="none" xmlns="http://www.w3.org/2000/svg">
<path d="M18.8893 19.4111C17.3931 19.4111 16.0001 18.8436 14.9683 17.8117C14.7619 17.6053 14.7619 17.1926 14.9683 16.9862L22.0365 9.91795L14.9683 2.84968C14.8651 2.7465 14.8135 2.59172 14.8135 2.43694C14.8135 2.28216 14.8651 2.12738 14.9683 2.02419C16.0001 0.992329 17.3931 0.424805 18.8893 0.424805C20.3856 0.424805 21.7786 0.992329 22.8104 2.02419L30.2914 9.5052C30.4978 9.71157 30.4978 10.1243 30.2914 10.3307L22.8104 17.8117C21.7786 18.792 20.3856 19.4111 18.8893 19.4111ZM16.2581 17.2958C17.032 17.8633 17.9091 18.1729 18.8893 18.1729C20.076 18.1729 21.1594 17.7085 21.9849 16.883L29.0532 9.81476L21.9849 2.79809C21.1594 1.9726 20.076 1.50826 18.8893 1.50826C17.9091 1.50826 17.032 1.81782 16.2581 2.38535L23.2748 9.40202C23.4811 9.60839 23.4811 10.0211 23.2748 10.2275L16.2581 17.2958Z" />
<path d="M11.414 19.4111C9.91781 19.4111 8.5248 18.8436 7.49294 17.8117C7.28657 17.6053 7.28657 17.1926 7.49294 16.9862L14.5612 9.91795L7.49294 2.84968C7.38975 2.7465 7.33813 2.59172 7.33813 2.43694C7.33813 2.28216 7.38975 2.12738 7.49294 2.02419C8.5248 0.992329 9.91781 0.424805 11.414 0.424805C12.9102 0.424805 14.3032 0.992329 15.3351 2.02419L22.8161 9.5052C22.9193 9.60839 22.9709 9.76317 22.9709 9.91795C22.9709 10.0727 22.9193 10.2275 22.8161 10.3307L15.3351 17.8117C14.3032 18.792 12.9102 19.4111 11.414 19.4111ZM8.78277 17.2958C9.55667 17.8633 10.4337 18.1729 11.414 18.1729C12.6007 18.1729 13.6841 17.7085 14.5096 16.883L21.5779 9.81476L14.5096 2.7465C13.6841 1.92101 12.6007 1.45667 11.414 1.45667C10.4337 1.45667 9.55667 1.76623 8.78277 2.33375L15.7994 9.45361C16.0058 9.65998 16.0058 10.0727 15.7994 10.2791L8.78277 17.2958Z" />
<path d="M4.49382 19.4111C2.99761 19.4111 1.60461 18.8436 0.572748 17.8117C0.366376 17.6053 0.366376 17.1926 0.572748 16.9862L7.64102 9.91795L0.572748 2.84968C0.366376 2.64331 0.366376 2.23056 0.572748 2.02419C1.60461 0.992329 2.99761 0.424805 4.49382 0.424805C5.99002 0.424805 7.38305 0.992329 8.41492 2.02419L15.8959 9.5052C16.1023 9.71157 16.1023 10.1243 15.8959 10.3307L8.41492 17.8117C7.38305 18.792 5.99002 19.4111 4.49382 19.4111ZM1.86258 17.2958C2.63647 17.8633 3.51355 18.1729 4.49382 18.1729C5.68046 18.1729 6.76392 17.7085 7.58941 16.883L14.6577 9.81476L7.58941 2.7465C6.76392 1.92101 5.68046 1.45667 4.49382 1.45667C3.51355 1.45667 2.63647 1.76623 1.86258 2.33375L8.87924 9.35042C9.08561 9.5568 9.08561 9.96954 8.87924 10.1759L1.86258 17.2958Z" />
<path d="M81.823 10.0196H8.0518C7.8262 10.0196 7.63818 9.75804 7.63818 9.44416C7.63818 9.13029 7.8262 8.81641 8.0518 8.81641H81.823C82.0486 8.81641 82.2366 9.07797 82.2366 9.44416C82.2366 9.81036 82.0862 10.0196 81.823 10.0196Z" />
<path d="M96.1589 19.3596C96.0041 19.3596 95.9009 19.308 95.7977 19.2048L92.2894 16.3672C92.1346 16.264 92.083 16.1092 92.083 15.9029C92.083 15.7481 92.1862 15.5417 92.2894 15.4385L99.2029 9.86645L92.2894 4.29439C92.1346 4.1912 92.083 4.03642 92.083 3.83005C92.083 3.62368 92.1862 3.4689 92.2894 3.36571L95.7977 0.528085C95.9525 0.373305 96.2105 0.373307 96.4168 0.4249L116.641 9.29892C116.848 9.40211 117.003 9.60849 117.003 9.86645C117.003 10.1244 116.848 10.3308 116.641 10.434L96.4168 19.308C96.3137 19.308 96.2105 19.3596 96.1589 19.3596ZM93.5792 15.9029L96.2105 18.0698L114.836 9.86645L96.2105 1.66314L93.5792 3.83005L100.493 9.40211C100.647 9.5053 100.699 9.66008 100.699 9.86645C100.699 10.0212 100.596 10.2276 100.493 10.3308L93.5792 15.9029Z" />
<path d="M84.4935 12.6525C82.9457 12.6525 81.6559 11.4143 81.6559 9.81492C81.6559 8.26712 82.8941 6.97729 84.4935 6.97729C86.0413 6.97729 87.2796 8.21553 87.2796 9.81492C87.3311 11.4143 86.0929 12.6525 84.4935 12.6525ZM84.4935 8.21553C83.6164 8.21553 82.8941 8.93784 82.8941 9.86652C82.8941 10.7952 83.6164 11.5175 84.4935 11.5175C85.3706 11.5175 86.0929 10.7952 86.0929 9.86652C86.0929 8.93784 85.4222 8.21553 84.4935 8.21553Z" />
<path d="M89.0356 12.6525C87.4878 12.6525 86.198 11.4143 86.198 9.81492C86.198 8.26712 87.4362 6.97729 89.0356 6.97729C90.5834 6.97729 91.8217 8.21553 91.8217 9.81492C91.8733 11.4143 90.5834 12.6525 89.0356 12.6525ZM89.0356 8.21553C88.1585 8.21553 87.3847 8.93784 87.3847 9.86652C87.3847 10.7952 88.1069 11.5175 89.0356 11.5175C89.9127 11.5175 90.635 10.7952 90.635 9.86652C90.635 8.93784 89.9643 8.21553 89.0356 8.21553Z" />
<path d="M93.5741 12.6525C92.0263 12.6525 90.7365 11.4143 90.7365 9.81492C90.7365 8.26712 91.9747 6.97729 93.5741 6.97729C95.1219 6.97729 96.3601 8.21553 96.3601 9.81492C96.4117 11.4143 95.1219 12.6525 93.5741 12.6525ZM93.5741 8.21553C92.697 8.21553 91.9231 8.93784 91.9231 9.86652C91.9231 10.7952 92.6454 11.5175 93.5741 11.5175C94.4512 11.5175 95.1735 10.7952 95.1735 9.86652C95.1735 8.93784 94.4512 8.21553 93.5741 8.21553Z" />
</svg>
