<svg width="62" height="43" viewBox="0 0 62 43" fill="none" xmlns="http://www.w3.org/2000/svg">
<path d="M61.225 9.13274C61.225 9.13274 60.45 4.9469 58.9 3.04425C56.575 0.761062 53.8625 0.761062 52.7 0.380531C44.175 0 31 0 31 0C31 0 17.825 0 9.3 0.761062C8.1375 0.761062 5.425 0.761062 3.1 3.42478C1.1625 4.9469 0.775 9.13274 0.775 9.13274C0.775 9.13274 0 14.0796 0 19.0265V23.5929C0 28.5398 0.775 33.4867 0.775 33.4867C0.775 33.4867 1.55 37.6726 3.1 39.5752C5.425 41.8584 8.525 41.8584 10.075 42.2389C14.725 42.6195 31 43 31 43C31 43 44.175 43 52.7 42.2389C53.8625 42.2389 56.575 42.2389 58.9 39.5752C60.8375 37.6726 61.225 33.4867 61.225 33.4867C61.225 33.4867 62 28.5398 62 23.5929V19.0265C62 14.0796 61.225 9.13274 61.225 9.13274ZM24.4125 29.3009V12.177L41.075 20.9292L24.4125 29.3009Z" fill="white"/>
</svg>
