<svg width="60" height="59" viewBox="0 0 60 59" fill="none" xmlns="http://www.w3.org/2000/svg">
<path d="M29.4739 29.8528C29.4082 29.59 29.4739 29.3272 29.671 29.1301C29.8681 28.933 30.1309 28.8673 30.3937 28.933C30.8536 28.9987 41.1685 31.3639 49.1182 39.3136C57.0023 47.2634 59.3018 57.5783 59.4332 58.0382C59.4989 58.301 59.4332 58.5638 59.2361 58.7609C59.1047 58.8923 58.9076 58.958 58.7105 58.958C58.6448 58.958 58.5791 58.958 58.5791 58.958C58.1192 58.8923 47.8042 56.5271 39.8545 48.5774C31.9048 40.6276 29.5396 30.3127 29.4739 29.8528ZM57.3308 57.0527L57.6593 57.1184L57.5936 56.7899C56.6738 53.8334 53.9801 46.2779 48.067 40.3648C42.154 34.4518 34.5985 31.7581 31.642 30.8383L31.3135 30.7726L31.3792 31.1011C32.299 34.0576 34.9927 41.6131 40.9057 47.5262C46.8187 53.3735 54.3743 56.1329 57.3308 57.0527Z" fill="#B49A5D"/>
<path d="M29.6698 29.1956C29.9326 28.9328 30.4582 28.9328 30.721 29.1956L59.1692 57.6438C59.3006 57.7752 59.3663 57.9723 59.3663 58.1694C59.3663 58.3665 59.3006 58.5636 59.1692 58.695C59.0378 58.8264 58.8407 58.8921 58.6436 58.8921C58.4465 58.8921 58.2494 58.8264 58.118 58.695L29.6698 30.2468C29.407 29.9183 29.407 29.4584 29.6698 29.1956Z" fill="#B49A5D"/>
<path d="M0.567606 1.0105C0.501906 0.747696 0.567606 0.484896 0.764707 0.287794C0.961808 0.0906925 1.22461 0.0249958 1.48741 0.0906963C1.94731 0.156397 12.2623 2.5216 20.212 10.4713C28.096 18.3554 30.4612 28.736 30.5926 29.1959C30.6583 29.4587 30.5926 29.7215 30.3955 29.9186C30.2641 30.05 30.067 30.1157 29.8699 30.1157C29.8042 30.1157 29.7385 30.1157 29.7385 30.1157C29.2786 30.05 18.9637 27.6848 11.014 19.7351C2.99852 11.7853 0.699007 1.4047 0.567606 1.0105ZM28.4245 28.1447L28.753 28.2104L28.6873 27.8819C27.7675 24.9254 25.0738 17.3699 19.1608 11.4568C13.2478 5.54382 5.69223 2.85011 2.73572 1.9303L2.40721 1.8646L2.47291 2.1931C3.39272 5.14962 6.08643 12.7051 11.9995 18.6182C17.9125 24.5312 25.468 27.2249 28.4245 28.1447Z" fill="#B49A5D"/>
<path d="M0.763507 0.287846C1.02631 0.0250435 1.55191 0.0250435 1.81471 0.287846L30.2629 28.7361C30.5914 29.0646 30.5914 29.5245 30.2629 29.7873C30.1315 29.9187 29.9344 29.9844 29.7373 29.9844C29.5402 29.9844 29.3431 29.9187 29.2117 29.7873L0.763507 1.33905C0.500706 1.07625 0.500706 0.550646 0.763507 0.287846Z" fill="#B49A5D"/>
<path d="M10.9485 39.3134C18.8983 31.3637 29.2132 29.0642 29.6731 28.9328C29.9359 28.8671 30.1987 28.9328 30.3958 29.1299C30.5929 29.327 30.6586 29.5898 30.5929 29.8526C30.5272 30.3125 28.162 40.6274 20.2123 48.5771C12.2625 56.5269 1.94758 58.8264 1.48768 58.8921C1.42198 58.8921 1.35628 58.8921 1.35628 58.8921C1.15917 58.8921 0.962074 58.8264 0.830673 58.695C0.633572 58.5636 0.502172 58.3008 0.567872 58.038C0.699272 57.5781 2.99878 47.1974 10.9485 39.3134ZM2.67028 57.0525C5.62679 56.1327 13.1823 53.439 19.0954 47.5259C25.0084 41.6129 27.7021 34.0574 28.6219 31.1009L28.6876 30.7724L28.3591 30.8381C25.4026 31.7579 17.847 34.4516 11.934 40.3646C6.02099 46.2776 3.32728 53.8332 2.40748 56.7897L2.34178 57.1182L2.67028 57.0525Z" fill="#B49A5D"/>
<path d="M0.566406 58.1694C0.566406 57.9723 0.632107 57.7752 0.763507 57.6438L29.2117 29.1956C29.4745 28.9328 30.0001 28.9328 30.2629 29.1956C30.5914 29.4584 30.5914 29.984 30.2629 30.2468L1.88041 58.695C1.74901 58.8264 1.55191 58.8921 1.35481 58.8921C1.15771 58.8921 0.960608 58.8264 0.829207 58.695C0.632107 58.5636 0.566406 58.3665 0.566406 58.1694Z" fill="#B49A5D"/>
<path d="M39.7888 10.4054C47.7385 2.52138 58.0535 0.156172 58.5134 0.0247707C58.7762 -0.0409298 59.039 0.0247726 59.2361 0.221874C59.4332 0.418974 59.4989 0.681774 59.4332 0.944576C59.3675 1.40448 57.0023 11.7194 49.0525 19.6692C41.1028 27.6189 30.7879 29.9184 30.3937 30.0498C30.328 30.0498 30.2623 30.0498 30.1966 30.0498C29.9995 30.0498 29.8024 29.9841 29.671 29.8527C29.4739 29.6556 29.4082 29.3928 29.4739 29.13C29.5396 28.6701 31.9048 18.3552 39.7888 10.4054ZM31.5763 28.1445C34.5328 27.2247 42.0883 24.531 48.0013 18.618C53.9144 12.7049 56.6081 5.14939 57.5279 2.19288L57.5936 1.86438L57.2651 1.93008C54.3086 2.84988 46.753 5.5436 40.84 11.4566C34.927 17.3696 32.2333 24.9252 31.3135 27.8817L31.2478 28.2102L31.5763 28.1445Z" fill="#B49A5D"/>
<path d="M59.2349 1.33878L30.721 29.8527C30.5896 29.9841 30.3925 30.0498 30.1954 30.0498C29.9983 30.0498 29.8012 29.9841 29.6698 29.8527C29.407 29.5242 29.407 29.0643 29.6698 28.8015L58.118 0.353275C58.3808 0.0904732 58.9064 0.0904732 59.1692 0.353275C59.4977 0.550375 59.4977 1.07598 59.2349 1.33878Z" fill="#B49A5D"/>
<path d="M54.5685 29.1956C54.897 29.5241 54.897 29.984 54.5685 30.2468L49.1811 35.5685C49.0497 35.6999 48.8526 35.7656 48.6555 35.7656C48.4584 35.7656 48.2613 35.6999 48.1299 35.5685L42.7425 30.1811C42.414 29.8526 42.414 29.3927 42.7425 29.1299L48.1299 23.7425C48.3927 23.4797 48.9183 23.4797 49.1811 23.7425L54.5685 29.1956ZM44.385 29.7212L48.6555 33.9917L52.926 29.7212L48.6555 25.4507L44.385 29.7212Z" fill="#20201E"/>
<path d="M18.2404 30.247L12.853 35.6344C12.7216 35.7658 12.5245 35.8315 12.3274 35.8315C12.1303 35.8315 11.9332 35.7658 11.8018 35.6344L6.41434 30.247C6.08584 29.9185 6.08584 29.4586 6.41434 29.1958L11.8018 23.8084C12.0646 23.5456 12.5902 23.5456 12.853 23.8084L18.2404 29.1958C18.5032 29.4586 18.5032 29.9185 18.2404 30.247ZM12.3274 25.4509L8.05685 29.7214L12.3274 33.9919L16.5979 29.7214L12.3274 25.4509Z" fill="#20201E"/>
<path d="M24.6151 48.3801C24.4837 48.2487 24.418 48.0516 24.418 47.8545C24.418 47.6574 24.4837 47.4603 24.6151 47.3289L30.0025 41.9414C30.2653 41.6786 30.7909 41.6786 31.0537 41.9414L36.4411 47.3289C36.5725 47.4603 36.6382 47.6574 36.6382 47.8545C36.6382 48.0516 36.5725 48.2487 36.4411 48.3801L31.0537 53.7675C30.9223 53.8989 30.7252 53.9646 30.5281 53.9646C30.331 53.9646 30.1339 53.8989 30.0025 53.7675L24.6151 48.3801ZM34.7986 47.8545L30.5281 43.584L26.1919 47.8545L30.4624 52.125L34.7986 47.8545Z" fill="#20201E"/>
<path d="M24.6151 12.0483C24.4837 11.9169 24.418 11.7198 24.418 11.5227C24.418 11.3256 24.4837 11.1285 24.6151 10.9971L30.0025 5.60966C30.2653 5.34686 30.7909 5.34686 31.0537 5.60966L36.4411 10.9971C36.5725 11.1285 36.6382 11.3256 36.6382 11.5227C36.6382 11.7198 36.5725 11.9169 36.4411 12.0483L31.0537 17.4357C30.9223 17.5671 30.7252 17.6328 30.5281 17.6328C30.331 17.6328 30.1339 17.5671 30.0025 17.4357L24.6151 12.0483ZM34.7986 11.5227L30.5281 7.25216L26.2576 11.5227L30.5281 15.7932L34.7986 11.5227Z" fill="#20201E"/>
</svg>
