<svg width="883" height="264" viewBox="0 0 883 264" fill="none" xmlns="http://www.w3.org/2000/svg">
<path d="M1.18359 70.415V193.585L65.5001 263H526.008H817.5L881.817 193.585V70.415L817.5 1H526.008H65.5001L1.18359 70.415Z" stroke="#B49A5D" stroke-width="0.804" stroke-miterlimit="10"/>
<path d="M866.793 187.44L810.5 248.195H73.0001L16.707 187.44V76.5603L73.0001 15.8047H810.5L866.793 76.5603V187.44Z" stroke="#B49A5D" stroke-width="0.804" stroke-miterlimit="10"/>
<path d="M2.13281 193.585L15.8503 187.439" stroke="#B49A5D" stroke-width="0.804" stroke-miterlimit="10"/>
<path d="M16.2409 76.7011L2.52344 70.6953" stroke="#B49A5D" stroke-width="0.804" stroke-miterlimit="10"/>
<path d="M72.2677 16.2227L66.7031 1.41797" stroke="#B49A5D" stroke-width="0.804" stroke-miterlimit="10"/>
<path d="M867.281 187.439L880.999 193.585" stroke="#B49A5D" stroke-width="0.804" stroke-miterlimit="10"/>
<path d="M867.281 76.5594L880.999 70.4141" stroke="#B49A5D" stroke-width="0.804" stroke-miterlimit="10"/>
<path d="M810.992 15.8048L816.686 1" stroke="#B49A5D" stroke-width="0.804" stroke-miterlimit="10"/>
<path d="M71.7526 248.055L66.0586 262.86" stroke="#B49A5D" stroke-width="0.804" stroke-miterlimit="10"/>
<path d="M810.867 247.777L816.561 262.582" stroke="#B49A5D" stroke-width="0.804" stroke-miterlimit="10"/>
</svg>
