<svg width="59" height="59" viewBox="0 0 59 59" fill="none" xmlns="http://www.w3.org/2000/svg">
<path d="M28.9309 29.8525C28.8652 29.5897 28.9309 29.3269 29.128 29.1298C29.3251 28.9327 29.5879 28.867 29.8507 28.9327C30.3106 28.9984 40.6255 31.3636 48.5753 39.3134C56.4593 47.2631 58.7588 57.5781 58.8902 58.038C58.9559 58.3008 58.8902 58.5636 58.6931 58.7607C58.5617 58.8921 58.3646 58.9578 58.1675 58.9578C58.1018 58.9578 58.0361 58.9578 58.0361 58.9578C57.5762 58.8921 47.2613 56.5269 39.3115 48.5771C31.3618 40.6274 28.9966 30.3124 28.9309 29.8525ZM56.7878 57.0525L57.1163 57.1182L57.0506 56.7897C56.1308 53.8331 53.4371 46.2776 47.5241 40.3646C41.611 34.4516 34.0555 31.7578 31.099 30.838L30.7705 30.7723L30.8362 31.1008C31.756 34.0574 34.4497 41.6129 40.3627 47.5259C46.2758 53.3732 53.8313 56.1327 56.7878 57.0525Z" fill="#B49A5D"/>
<path d="M29.1268 29.1953C29.3896 28.9325 29.9152 28.9325 30.178 29.1953L58.6262 57.6435C58.7576 57.7749 58.8233 57.972 58.8233 58.1691C58.8233 58.3662 58.7576 58.5633 58.6262 58.6947C58.4948 58.8261 58.2977 58.8918 58.1006 58.8918C57.9035 58.8918 57.7064 58.8261 57.575 58.6947L29.1268 30.2465C28.864 29.918 28.864 29.4581 29.1268 29.1953Z" fill="#B49A5D"/>
<path d="M0.0246376 1.01025C-0.0410627 0.747452 0.0246376 0.484652 0.221738 0.28755C0.418839 0.0904484 0.68164 0.0247517 0.944442 0.0904522C1.40434 0.156153 11.7193 2.52136 19.669 10.4711C27.5531 18.3551 29.9183 28.7358 30.0497 29.1957C30.1154 29.4585 30.0497 29.7213 29.8526 29.9184C29.7212 30.0498 29.5241 30.1155 29.327 30.1155C29.2613 30.1155 29.1956 30.1155 29.1956 30.1155C28.7357 30.0498 18.4207 27.6846 10.471 19.7348C2.45555 11.7851 0.156038 1.40445 0.0246376 1.01025ZM27.8816 28.1445L28.2101 28.2102L28.1444 27.8817C27.2246 24.9252 24.5308 17.3696 18.6178 11.4566C12.7048 5.54357 5.14926 2.84986 2.19275 1.93006L1.86425 1.86436L1.92995 2.19286C2.84975 5.14937 5.54346 12.7049 11.4565 18.6179C17.3695 24.531 24.925 27.2247 27.8816 28.1445Z" fill="#B49A5D"/>
<path d="M0.220538 0.287601C0.48334 0.0247993 1.00894 0.0247993 1.27174 0.287601L29.72 28.7358C30.0485 29.0643 30.0485 29.5242 29.72 29.787C29.5886 29.9184 29.3915 29.9841 29.1944 29.9841C28.9973 29.9841 28.8002 29.9184 28.6688 29.787L0.220538 1.3388C-0.0422628 1.076 -0.0422628 0.550402 0.220538 0.287601Z" fill="#B49A5D"/>
<path d="M10.4055 39.3132C18.3553 31.3634 28.6702 29.0639 29.1301 28.9325C29.3929 28.8668 29.6557 28.9325 29.8528 29.1296C30.0499 29.3267 30.1156 29.5895 30.0499 29.8523C29.9842 30.3122 27.619 40.6272 19.6693 48.5769C11.7196 56.5266 1.40461 58.8261 0.944707 58.8918C0.879007 58.8918 0.813307 58.8918 0.813307 58.8918C0.616206 58.8918 0.419105 58.8261 0.287704 58.6947C0.0906034 58.5633 -0.0407972 58.3005 0.0249031 58.0377C0.156304 57.5778 2.45581 47.1972 10.4055 39.3132ZM2.12731 57.0522C5.08383 56.1324 12.6394 53.4387 18.5524 47.5257C24.4654 41.6127 27.1591 34.0571 28.0789 31.1006L28.1446 30.7721L27.8161 30.8378C24.8596 31.7576 17.3041 34.4513 11.3911 40.3644C5.47803 46.2774 2.78432 53.8329 1.86451 56.7894L1.79881 57.1179L2.12731 57.0522Z" fill="#B49A5D"/>
<path d="M0.0234375 58.1691C0.0234375 57.972 0.0891378 57.7749 0.220538 57.6435L28.6688 29.1953C28.9316 28.9325 29.4572 28.9325 29.72 29.1953C30.0485 29.4581 30.0485 29.9837 29.72 30.2465L1.33744 58.6947C1.20604 58.8261 1.00894 58.8918 0.811841 58.8918C0.61474 58.8918 0.417639 58.8261 0.286239 58.6947C0.0891378 58.5633 0.0234375 58.3662 0.0234375 58.1691Z" fill="#B49A5D"/>
<path d="M39.2458 10.4052C47.1956 2.52114 57.5105 0.155928 57.9704 0.0245266C58.2332 -0.0411739 58.496 0.0245285 58.6931 0.22163C58.8902 0.41873 58.9559 0.68153 58.8902 0.944332C58.8245 1.40423 56.4593 11.7192 48.5096 19.6689C40.5598 27.6186 30.2449 29.9182 29.8507 30.0496C29.785 30.0496 29.7193 30.0496 29.6536 30.0496C29.4565 30.0496 29.2594 29.9839 29.128 29.8525C28.9309 29.6554 28.8652 29.3926 28.9309 29.1298C28.9966 28.6699 31.3618 18.3549 39.2458 10.4052ZM31.0333 28.1443C33.9898 27.2244 41.5453 24.5307 47.4584 18.6177C53.3714 12.7047 56.0651 5.14915 56.9849 2.19264L57.0506 1.86414L56.7221 1.92984C53.7656 2.84964 46.2101 5.54335 40.297 11.4564C34.384 17.3694 31.6903 24.9249 30.7705 27.8814L30.7048 28.21L31.0333 28.1443Z" fill="#B49A5D"/>
<path d="M58.6919 1.33854L30.178 29.8525C30.0466 29.9839 29.8495 30.0496 29.6524 30.0496C29.4553 30.0496 29.2582 29.9839 29.1268 29.8525C28.864 29.524 28.864 29.0641 29.1268 28.8013L57.575 0.353031C57.8378 0.090229 58.3634 0.090229 58.6262 0.353031C58.9547 0.550131 58.9547 1.07573 58.6919 1.33854Z" fill="#B49A5D"/>
<path d="M54.0256 29.1954C54.3541 29.5239 54.3541 29.9838 54.0256 30.2466L48.6381 35.5683C48.5067 35.6997 48.3096 35.7654 48.1125 35.7654C47.9154 35.7654 47.7183 35.6997 47.5869 35.5683L42.1995 30.1809C41.871 29.8524 41.871 29.3925 42.1995 29.1297L47.5869 23.7422C47.8497 23.4794 48.3753 23.4794 48.6381 23.7422L54.0256 29.1954ZM43.842 29.721L48.1125 33.9915L52.383 29.721L48.1125 25.4504L43.842 29.721Z" fill="#20201E"/>
<path d="M17.6974 30.2468L12.31 35.6342C12.1786 35.7656 11.9815 35.8313 11.7844 35.8313C11.5873 35.8313 11.3902 35.7656 11.2588 35.6342L5.87138 30.2468C5.54287 29.9183 5.54287 29.4584 5.87138 29.1956L11.2588 23.8082C11.5216 23.5453 12.0472 23.5453 12.31 23.8082L17.6974 29.1956C17.9602 29.4584 17.9602 29.9183 17.6974 30.2468ZM11.7844 25.4507L7.51388 29.7212L11.7844 33.9917L16.0549 29.7212L11.7844 25.4507Z" fill="#20201E"/>
<path d="M24.0721 48.38C23.9407 48.2486 23.875 48.0515 23.875 47.8544C23.875 47.6573 23.9407 47.4602 24.0721 47.3287L29.4595 41.9413C29.7223 41.6785 30.2479 41.6785 30.5107 41.9413L35.8982 47.3287C36.0296 47.4602 36.0953 47.6573 36.0953 47.8544C36.0953 48.0515 36.0296 48.2486 35.8982 48.38L30.5107 53.7674C30.3793 53.8988 30.1822 53.9645 29.9851 53.9645C29.788 53.9645 29.5909 53.8988 29.4595 53.7674L24.0721 48.38ZM34.2556 47.8544L29.9851 43.5838L25.6489 47.8544L29.9194 52.1249L34.2556 47.8544Z" fill="#20201E"/>
<path d="M24.0721 12.0479C23.9407 11.9165 23.875 11.7194 23.875 11.5223C23.875 11.3252 23.9407 11.1281 24.0721 10.9967L29.4595 5.60929C29.7223 5.34649 30.2479 5.34649 30.5107 5.60929L35.8982 10.9967C36.0296 11.1281 36.0953 11.3252 36.0953 11.5223C36.0953 11.7194 36.0296 11.9165 35.8982 12.0479L30.5107 17.4353C30.3793 17.5667 30.1822 17.6324 29.9851 17.6324C29.788 17.6324 29.5909 17.5667 29.4595 17.4353L24.0721 12.0479ZM34.2556 11.5223L29.9851 7.2518L25.7146 11.5223L29.9851 15.7928L34.2556 11.5223Z" fill="#20201E"/>
</svg>
