<svg width="136" height="117" viewBox="0 0 136 117" fill="none" xmlns="http://www.w3.org/2000/svg">
<g clip-path="url(#clip0_15_6699)">
<path d="M83.547 15.5802H82.9115V13.4151C82.9115 11.8868 81.6828 10.6981 80.2 10.6981C78.6747 10.6981 77.4884 11.9292 77.4884 13.4151V15.5802H70.752V8.78774H72.8704C74.3956 8.78774 75.5819 7.5566 75.5819 6.07076C75.5819 4.54245 74.3532 3.35377 72.8704 3.35377H70.752V2.71698C70.752 1.18868 69.5233 0 68.0405 0C66.5152 0 65.3289 1.23113 65.3289 2.71698V3.35377H63.2105C61.6853 3.35377 60.499 4.58491 60.499 6.07076C60.499 7.59906 61.7277 8.78774 63.2105 8.78774H65.3289V15.5802H58.5925V13.4151C58.5925 11.8868 57.3638 10.6981 55.881 10.6981C54.3981 10.6981 53.1694 11.9292 53.1694 13.4151V15.5802H52.5339C51.0087 15.5802 49.8224 16.8113 49.8224 18.2972C49.8224 19.8255 51.051 21.0142 52.5339 21.0142H53.1694V23.1368C53.1694 24.6651 54.3981 25.8538 55.881 25.8538C57.4062 25.8538 58.5925 24.6226 58.5925 23.1368V21.0142H65.2442V27.8066H63.1258C61.6006 27.8066 60.4143 29.0377 60.4143 30.5236C60.4143 32.0094 61.6429 33.2406 63.1258 33.2406H65.2442V33.8774C65.2442 35.4057 66.4729 36.5943 67.9557 36.5943C69.481 36.5943 70.6672 35.3632 70.6672 33.8774V33.2406H72.7856C74.3109 33.2406 75.4972 32.0094 75.4972 30.5236C75.4972 29.0377 74.2685 27.8066 72.7856 27.8066H70.6672V21.0142H77.4037V23.1368C77.4037 24.6651 78.6324 25.8538 80.1152 25.8538C81.5981 25.8538 82.8268 24.6226 82.8268 23.1368V21.0142H83.4623C84.9875 21.0142 86.1738 19.783 86.1738 18.2972C86.3009 16.8113 85.0722 15.5802 83.547 15.5802Z" fill="white"/>
<path d="M16.2302 69.6225C16.4844 69.2404 16.5691 68.4338 16.5691 67.6272C16.5691 66.8206 16.442 65.9716 16.2302 65.1225L15.7218 63.3395H11.019L10.5106 65.1225C10.2987 65.8442 10.1716 66.6508 10.1716 67.415C10.1716 68.3489 10.3411 69.198 10.5953 69.6225H6.78223C7.75668 68.4763 8.43456 66.948 9.07008 64.9952L13.8576 50.0518H15.6371L20.4246 64.9527C21.0177 66.7782 21.6109 68.3489 22.5853 69.5801H16.2302V69.6225ZM15.4676 62.3206L13.4339 54.9338L11.3156 62.3206H15.4676Z" fill="white"/>
<path d="M37.4038 64.1462C37.4038 67.5848 34.777 69.6226 30.9639 69.6226H23.8885C24.4817 67.882 24.6935 66.4811 24.6935 64.6131V55.1462C24.6935 53.2782 24.5241 51.8773 23.8885 50.1367H30.9216C33.972 50.1367 36.6412 51.4952 36.6412 54.6367C36.6412 57.2263 34.9465 58.9245 32.8281 59.5188C34.9889 59.9858 37.4038 61.1745 37.4038 64.1462ZM28.4642 51.3679C28.4219 52.6414 28.4219 53.915 28.4219 55.1462V59.1792H30.0319C31.9384 59.1792 32.8281 57.7358 32.8281 55.4858C32.8281 52.6839 31.6418 51.3679 29.3116 51.3679C29.015 51.3679 28.7608 51.3679 28.4642 51.3679ZM33.4213 64.8679C33.4213 61.8962 31.9808 60.3254 29.6505 60.3254C29.354 60.3254 28.8879 60.3679 28.4219 60.4103V64.6131C28.4219 65.7169 28.4219 67.0754 28.5066 68.2216C29.0574 68.3914 29.6082 68.3914 30.0742 68.3914C32.4892 68.3914 33.4213 67.2028 33.4213 64.8679Z" fill="white"/>
<path d="M52.4027 64.1462C52.4027 67.5848 49.7759 69.6226 45.9628 69.6226H38.8875C39.4806 67.882 39.6924 66.4811 39.6924 64.6131V55.1462C39.6924 53.2782 39.523 51.8773 38.8875 50.1367H45.9205C48.9709 50.1367 51.6401 51.4952 51.6401 54.6367C51.6401 57.2263 49.9454 58.9245 47.827 59.5188C49.9878 59.9858 52.4027 61.1745 52.4027 64.1462ZM43.5055 51.3679C43.4631 52.6414 43.4632 53.915 43.4632 55.1462V59.1792H45.0731C46.9797 59.1792 47.8694 57.7358 47.8694 55.4858C47.8694 52.6839 46.6831 51.3679 44.3529 51.3679C44.0139 51.3679 43.7597 51.3679 43.5055 51.3679ZM48.4202 64.8679C48.4202 61.8962 46.9797 60.3254 44.6494 60.3254C44.3529 60.3254 43.8868 60.3679 43.4208 60.4103V64.6131C43.4208 65.7169 43.4208 67.0754 43.5055 68.2216C44.0563 68.3914 44.6071 68.3914 45.0731 68.3914C47.4881 68.3914 48.4202 67.2028 48.4202 64.8679Z" fill="white"/>
<path d="M61.8557 69.6225C62.1099 69.2404 62.1946 68.4338 62.1946 67.6272C62.1946 66.8206 62.0675 65.9716 61.8557 65.1225L61.3473 63.3395H56.6445L56.1361 65.1225C55.9242 65.8442 55.7971 66.6508 55.7971 67.415C55.7971 68.3489 55.9666 69.198 56.2208 69.6225H52.4077C53.3822 68.4763 54.0601 66.948 54.6956 64.9952L59.4831 50.0518H61.2625L66.0925 64.9527C66.6856 66.7782 67.2787 68.3489 68.2532 69.5801H61.8557V69.6225ZM61.1354 62.3206L59.1018 54.9338L56.9834 62.3206H61.1354Z" fill="white"/>
<path d="M81.7654 50.1367C80.8756 50.8584 79.7741 52.5141 79.1809 53.8301L75.7915 61.0895V64.5707C75.7915 66.1839 75.961 67.8395 76.5965 69.5801H71.2582C71.8513 67.8395 72.0208 66.1839 72.0208 64.5707V61.0895L68.589 53.9999C67.9111 52.6414 66.9791 50.8584 66.1317 50.1367H72.3174C72.1479 50.4339 72.0632 50.816 72.0632 51.198C72.0632 51.9622 72.3174 52.8537 72.6987 53.7452L75.2407 59.6037L77.7404 53.7877C78.1217 52.8962 78.3336 51.9197 78.3336 51.198C78.3336 50.7735 78.2488 50.3914 78.0794 50.1367H81.7654Z" fill="white"/>
<path d="M94.6462 64.231L94.731 69.5801H82.9104C83.5035 67.8395 83.7154 66.1839 83.7154 64.5707V55.1037C83.7154 53.4905 83.5459 51.8348 82.9104 50.0942H94.7733L94.6462 55.4008C93.2905 52.981 91.6381 51.5376 87.8674 51.2829H87.5708C87.4861 52.5565 87.4861 53.8301 87.4861 55.0612V58.882H87.8674C90.0705 58.882 91.511 58.3725 93.1634 56.5895V62.5329C91.511 60.7924 90.0705 60.1556 87.8674 60.1556H87.4861V64.5707C87.4861 65.8018 87.5285 67.0754 87.6556 68.349H87.7403C91.8076 68.3065 93.2057 66.6933 94.6462 64.231Z" fill="white"/>
<path d="M115.404 59.5188C115.404 66.1839 111.634 69.6226 106.931 69.6226H100.999C101.593 67.882 101.804 66.2263 101.804 64.6131V55.1462C101.804 53.4056 101.55 51.665 100.999 50.1367H107.143C111.379 50.1367 115.404 52.7688 115.404 59.5188ZM111.422 60.2829C111.422 55.2735 109.854 51.4103 106.38 51.4103H105.66C105.617 52.7263 105.575 53.915 105.575 55.1886V64.6556C105.575 65.8443 105.617 67.1603 105.745 68.4339C106.041 68.4763 106.338 68.4763 106.634 68.4763C110.363 68.3914 111.422 64.6556 111.422 60.2829Z" fill="white"/>
<path d="M128.841 64.231L128.926 69.5801H117.105C117.698 67.8395 117.91 66.1839 117.91 64.5707V55.1037C117.91 53.4905 117.741 51.8348 117.105 50.0942H128.968L128.841 55.4008C127.485 52.981 125.833 51.5376 122.062 51.2829H121.766C121.681 52.5565 121.681 53.8301 121.681 55.0612V58.882H122.062C124.265 58.882 125.706 58.3725 127.358 56.5895V62.5329C125.706 60.7924 124.265 60.1556 122.062 60.1556H121.681V64.5707C121.681 65.8018 121.723 67.0754 121.85 68.349H121.935C126.002 68.3065 127.401 66.6933 128.841 64.231Z" fill="white"/>
<path d="M3.38746 82.868C3.38746 84.2265 4.23482 85.1605 6.69214 86.6888L9.06472 88.1746C10.8442 89.3208 12.2423 90.6793 12.2423 93.0567C12.2423 96.6227 9.40366 99.085 6.18373 99.085C3.4722 99.085 0.972511 97.302 -0.0443115 94.1605L3.09089 92.1652C4.36192 95.8586 5.92952 97.1746 7.49712 97.1746C8.76815 97.1746 9.6155 96.3256 9.6155 95.1369C9.6155 93.7784 9.10709 92.8444 7.07345 91.6133L3.98061 89.7029C1.98933 88.4718 0.506467 87.4105 0.506467 84.7784C0.506467 81.6369 3.30273 78.8774 7.75133 78.8774C9.10709 78.8774 10.5476 79.1322 11.6915 79.4293L10.9289 85.3303C9.74261 82.9954 7.53949 80.8303 5.42111 80.8303C4.19245 80.9152 3.38746 81.6793 3.38746 82.868Z" fill="white"/>
<path d="M22.1145 80.4055V93.6932C22.1145 95.3064 22.284 96.9621 23.0042 98.7026H17.4541C18.1319 96.9621 18.3438 95.3064 18.3438 93.6932V80.4055C15.6746 80.4055 14.5731 81.6366 13.1749 85.1602L13.302 79.2168H27.1562L27.241 85.1602C25.8852 81.4243 24.7836 80.4055 22.1145 80.4055Z" fill="white"/>
<path d="M34.36 89.4482H26.6067V90.5096H34.36V89.4482Z" fill="white"/>
<path d="M53.4242 93.7357C53.4242 95.3489 53.5937 96.9197 54.2292 98.6602H49.2298C49.8653 96.9197 50.0348 95.3489 50.0772 93.7357V84.481L45.2896 98.7027H43.5102L38.6803 84.3112V93.7781C38.6803 95.3914 38.8498 96.9621 39.4853 98.7027H36.4348C37.0703 96.9621 37.2398 95.3914 37.2398 93.7781V83.3348C37.2398 81.8489 37.0703 80.4055 36.4348 79.2593H42.2392C42.0273 79.5564 41.9426 80.0659 41.9426 80.6602C41.9426 81.5942 42.1544 82.7404 42.4934 83.7593L45.6286 93.5659L48.7214 83.7593C49.018 82.7829 49.2298 81.6791 49.2298 80.7876C49.2298 80.1508 49.1451 79.5989 48.8909 79.3017H54.2292C53.509 80.448 53.4242 81.8489 53.4242 83.3772V93.7357Z" fill="white"/>
<path d="M64.99 98.7026C65.2442 98.3205 65.3289 97.5564 65.3289 96.7073C65.3289 95.9007 65.2018 95.0516 64.99 94.2026L64.4816 92.4196H59.7788L59.2703 94.2026C59.0585 94.9243 58.9314 95.7309 58.9314 96.495C58.9314 97.429 59.1009 98.2781 59.3551 98.7026H55.542C56.5164 97.5564 57.1943 96.0281 57.8298 94.0752L62.6174 79.1318H64.3968L69.1844 94.0752C69.7775 95.9007 70.3706 97.4715 71.3451 98.7026H64.99ZM64.2274 91.4007L62.1937 84.0139L60.0753 91.4007H64.2274Z" fill="white"/>
<path d="M85.1972 79.2168C84.5194 80.9574 84.3499 82.5281 84.3499 84.1413V92.9715C84.3499 95.6036 83.1636 99.1272 78.1219 99.1272C73.2072 99.1272 72.0633 95.646 72.0633 92.9715V84.1413C72.0633 82.5281 71.8514 80.9574 71.2583 79.2168H76.5543C75.8764 80.9574 75.834 82.5281 75.834 84.1413V92.8866C75.834 95.4762 77.1474 96.8772 79.4352 96.8772C81.6807 96.8772 82.8247 95.5187 82.8247 92.8866V84.1413C82.8247 82.5281 82.6552 80.9574 81.9349 79.2168H85.1972Z" fill="white"/>
<path d="M101.3 98.7026H96.4698L94.6057 92.3772C94.2667 91.1036 93.8431 90.5942 93.3346 90.5092C92.7839 90.4668 92.1484 90.4668 91.5552 90.4668V93.6932C91.5552 95.3064 91.8094 96.9621 92.3602 98.7026H86.9371C87.5727 96.9621 87.6998 95.3064 87.6998 93.6932V84.2262C87.6998 82.613 87.5303 80.9574 86.8948 79.2168H93.6312C96.7241 79.2168 99.944 80.363 99.944 84.5234C99.944 87.1979 98.2069 88.8536 96.6393 89.6177C97.7409 89.7876 98.1646 90.3394 98.6306 91.8253L99.8169 95.7309C100.156 96.7923 100.622 97.6838 101.3 98.7026ZM92.1907 89.363C94.648 89.363 96.0462 88.6413 96.0462 85.0328C96.0038 82.0611 94.7751 80.363 92.6568 80.363C92.3178 80.363 91.9789 80.363 91.5976 80.4055C91.5552 81.6791 91.5552 82.9951 91.5552 84.2262V89.363H92.1907Z" fill="white"/>
<path d="M103.503 93.6932V84.2262C103.503 82.613 103.333 80.9574 102.655 79.2168H108.078C107.4 80.9574 107.273 82.613 107.273 84.2262V93.6932C107.273 95.3064 107.443 96.9621 108.036 98.7026H102.698C103.291 96.9621 103.503 95.3064 103.503 93.6932Z" fill="white"/>
<path d="M117.229 99.1274C113.331 99.1274 109.73 95.7312 109.73 89.151C109.73 83.2925 113.204 78.835 118.754 78.835C120.322 78.835 121.635 79.1746 122.355 79.5142L121.593 84.9482C120.11 82.2736 118.584 80.7878 116.593 80.7878C114.221 80.7878 113.416 83.1227 113.416 86.9435C113.416 92.7595 116.085 95.8161 119.517 95.8161C120.788 95.8161 121.72 95.3491 122.609 94.8397C122.186 97.3444 120.025 99.1274 117.229 99.1274Z" fill="white"/>
<path d="M135.871 93.3111L135.956 98.6602H124.135C124.728 96.9196 124.94 95.2639 124.94 93.6507V84.1838C124.94 82.5705 124.771 80.9149 124.135 79.1743H135.998L135.871 84.4809C134.515 82.0611 132.863 80.6177 129.092 80.363H128.796C128.711 81.6366 128.711 82.9102 128.711 84.1413V87.9621H129.092C131.295 87.9621 132.736 87.4526 134.388 85.6696V91.613C132.736 89.8724 131.295 89.2356 129.092 89.2356H128.711V93.6507C128.711 94.8819 128.753 96.1554 128.88 97.429H128.965C133.032 97.3866 134.43 95.7734 135.871 93.3111Z" fill="white"/>
<path d="M24.7385 109.656H28.8058V110.547H25.6706V112.755H28.1279V113.646H25.6706V116.915H24.7385V109.656Z" fill="white"/>
<path d="M30.5823 113.307C30.5823 111.226 32.1922 109.613 34.2683 109.613C36.3443 109.613 37.9542 111.226 37.9542 113.307C37.9542 115.387 36.3443 117 34.2683 117C32.1922 117 30.5823 115.387 30.5823 113.307ZM37.0222 113.307C37.0222 111.736 35.8359 110.505 34.2683 110.505C32.7007 110.505 31.5144 111.736 31.5144 113.307C31.5144 114.877 32.7007 116.109 34.2683 116.109C35.8359 116.109 37.0222 114.877 37.0222 113.307Z" fill="white"/>
<path d="M41.555 111.778V116.915H40.6229V109.613L45.7494 114.835V109.698H46.6815V117L41.555 111.778Z" fill="white"/>
<path d="M49.8667 109.656H52.0274C54.2729 109.656 55.8829 111.184 55.8829 113.264C55.8829 115.344 54.2729 116.873 52.0274 116.873H49.8667V109.656ZM51.9851 116.024C53.7222 116.024 54.9084 114.835 54.9084 113.264C54.9084 111.693 53.7645 110.505 51.9851 110.505H50.7564V116.024H51.9851Z" fill="white"/>
<path d="M58.5083 109.656H62.6603V110.547H59.398V112.755H62.0248V113.646H59.398V115.981H62.6603V116.873H58.5083V109.656ZM60.3301 109.104L61.0927 107.618H62.1943L61.0504 109.104H60.3301Z" fill="white"/>
<path d="M65.3615 109.656H69.5135V110.547H66.2512V112.755H68.878V113.646H66.2512V115.981H69.5135V116.873H65.3615V109.656Z" fill="white"/>
<path d="M76.0042 109.656H80.1562V110.547H76.8939V112.755H79.5207V113.646H76.8939V115.981H80.1562V116.873H76.0042V109.656Z" fill="white"/>
<path d="M83.7982 111.778V116.915H82.8661V109.613L87.9926 114.835V109.698H88.9247V117L83.7982 111.778Z" fill="white"/>
<path d="M95.3594 115.896L96.0373 115.387C96.2915 115.854 96.7999 116.236 97.4354 116.236C98.3251 116.236 98.9606 115.599 98.9606 114.708C98.9606 113.816 98.3251 113.137 97.393 113.137C96.8422 113.137 96.4609 113.434 96.2491 113.689L95.6559 113.434V109.741H99.2996V110.547H96.5457V112.5C96.8846 112.373 97.1812 112.288 97.4354 112.288C98.9606 112.288 99.8927 113.349 99.8927 114.665C99.8927 115.981 98.9183 117 97.4778 117C96.588 117 95.7407 116.533 95.3594 115.896Z" fill="white"/>
<path d="M102.869 110.505H101.513L102.191 109.698H103.759V116.915H102.869V110.505Z" fill="white"/>
<path d="M106.427 115.896L107.105 115.387C107.359 115.854 107.868 116.236 108.503 116.236C109.393 116.236 110.028 115.599 110.028 114.708C110.028 113.816 109.393 113.137 108.461 113.137C107.91 113.137 107.529 113.434 107.317 113.689L106.724 113.434V109.741H110.367V110.547H107.613V112.5C107.952 112.373 108.249 112.288 108.503 112.288C110.028 112.288 110.96 113.349 110.96 114.665C110.96 115.981 109.986 117 108.546 117C107.656 117 106.808 116.533 106.427 115.896Z" fill="white"/>
</g>
<defs>
<clipPath id="clip0_15_6699">
<rect width="136" height="117" fill="white"/>
</clipPath>
</defs>
</svg>
