<svg width="275" height="33" viewBox="0 0 275 33" fill="none" xmlns="http://www.w3.org/2000/svg">
<g clip-path="url(#clip0_412_42764)">
<path d="M20.6786 9.48964H20.3354V8.12176C20.3354 7.18135 19.5632 6.49741 18.7051 6.49741C17.7613 6.49741 17.0749 7.26684 17.0749 8.12176V9.40415H12.8705V5.38601H14.1576C15.1014 5.38601 15.7878 4.61658 15.7878 3.76166C15.7878 2.82124 15.0156 2.13731 14.1576 2.13731H12.8705V1.62435C12.8705 0.76943 12.0983 0 11.1544 0C10.2106 0 9.52418 0.76943 9.52418 1.62435V1.96632H8.23713C7.29329 1.96632 6.60686 2.73575 6.60686 3.59067C6.60686 4.53109 7.3791 5.21503 8.23713 5.21503H9.52418V9.31865H5.40562V8.12176C5.40562 7.18135 4.63339 6.49741 3.77535 6.49741C2.83151 6.49741 2.14509 7.26684 2.14509 8.12176V9.40415H1.63027C0.772231 9.48964 0 10.1736 0 11.114C0 12.0544 0.772231 12.8238 1.63027 12.8238H1.97348V14.1062C1.97348 15.0466 2.74571 15.7306 3.60374 15.7306C4.54758 15.7306 5.23401 14.9611 5.23401 14.1062V12.8238H9.35257V16.9275H8.23713C7.29329 16.9275 6.60686 17.6969 6.60686 18.5518C6.60686 19.4922 7.3791 20.1762 8.23713 20.1762H9.52418V20.5181C9.52418 21.4586 10.2964 22.1425 11.1544 22.1425C12.0983 22.1425 12.7847 21.3731 12.7847 20.5181V20.1762H14.0718C15.0156 20.1762 15.702 19.4067 15.702 18.5518C15.702 17.6114 14.9298 16.9275 14.0718 16.9275H12.8705V12.8238H16.9891V14.1062C16.9891 15.0466 17.7613 15.7306 18.6193 15.7306C19.5632 15.7306 20.2496 14.9611 20.2496 14.1062V12.8238H20.5928C21.5367 12.8238 22.2231 12.0544 22.2231 11.1995C22.3089 10.1736 21.6225 9.48964 20.6786 9.48964Z" fill="white"/>
<path d="M36.2948 20.2616C36.5522 19.9197 36.638 19.1502 36.638 18.3808C36.638 17.6114 36.5522 16.842 36.2948 16.0725L35.78 14.3627H31.3182L30.8034 16.0725C30.6318 16.7565 30.4602 17.5259 30.4602 18.2098C30.4602 19.0648 30.6318 19.9197 30.8892 20.2616H27.457C28.4009 19.2357 29.0015 17.7824 29.6021 15.9015L34.0639 1.96631H35.78L40.2417 15.9015C40.8424 17.6114 41.3572 19.0648 42.2152 20.2616H36.2948ZM35.6084 13.4223L33.7207 6.4974L31.7472 13.4223H35.6084Z" fill="white"/>
<path d="M56.1151 15.132C56.1151 18.2952 53.6268 20.2616 50.1088 20.2616H43.502C44.1026 18.6372 44.2742 17.3548 44.2742 15.645V6.75379C44.2742 5.04394 44.1026 3.67607 43.502 2.13721H50.1088C52.9403 2.13721 55.5144 3.41959 55.5144 6.32633C55.5144 8.72011 53.8842 10.3445 51.9965 10.8574C53.8842 11.2849 56.1151 12.3963 56.1151 15.132ZM47.7921 3.24861C47.7063 4.4455 47.7063 5.64239 47.7063 6.75379V10.5154H49.2508C51.0527 10.5154 51.8249 9.14757 51.8249 7.09576C51.8249 4.53099 50.7094 3.24861 48.5644 3.24861C48.3069 3.24861 48.0495 3.24861 47.7921 3.24861ZM52.4255 15.816C52.4255 13.0802 51.0527 11.5414 48.9076 11.5414C48.6502 11.5414 48.2211 11.5414 47.7921 11.6268V15.5595C47.7921 16.5854 47.7921 17.8678 47.8779 18.8937C48.3927 19.0647 48.9076 19.0647 49.3366 19.0647C51.5675 19.0647 52.4255 18.0388 52.4255 15.816Z" fill="white"/>
<path d="M70.1872 15.132C70.1872 18.2952 67.6989 20.2616 64.181 20.2616H57.4883C58.0889 18.6372 58.2605 17.3548 58.2605 15.645V6.75379C58.2605 5.04394 58.0889 3.67607 57.4883 2.13721H64.0951C66.9267 2.13721 69.5008 3.41959 69.5008 6.32633C69.5008 8.72011 67.8705 10.3445 65.9828 10.8574C67.9563 11.2849 70.1872 12.3963 70.1872 15.132ZM61.8643 3.24861C61.7785 4.4455 61.7785 5.64239 61.7785 6.75379V10.5154H63.3229C65.1248 10.5154 65.897 9.14757 65.897 7.09576C65.897 4.53099 64.7816 3.24861 62.6365 3.24861C62.3791 3.24861 62.1217 3.24861 61.8643 3.24861ZM66.4118 15.816C66.4118 13.0802 65.039 11.5414 62.8939 11.5414C62.6365 11.5414 62.2075 11.5414 61.7785 11.6268V15.5595C61.7785 16.5854 61.7785 17.8678 61.8643 18.8937C62.3791 19.0647 62.8939 19.0647 63.3229 19.0647C65.5538 19.0647 66.4118 18.0388 66.4118 15.816Z" fill="white"/>
<path d="M79.025 20.2616C79.2824 19.9197 79.3682 19.1502 79.3682 18.3808C79.3682 17.6114 79.2824 16.842 79.025 16.0725L78.5102 14.3627H74.0484L73.5336 16.0725C73.362 16.7565 73.1904 17.5259 73.1904 18.2098C73.1904 19.0648 73.362 19.9197 73.6194 20.2616H70.0156C70.9595 19.2357 71.5601 17.7824 72.1607 15.9015L76.6225 1.96631H78.3386L82.8003 15.9015C83.401 17.6114 83.9158 19.0648 84.7738 20.2616H79.025ZM78.3386 13.4223L76.4509 6.4974L74.4774 13.4223H78.3386Z" fill="white"/>
<path d="M97.6452 2.13721C96.7871 2.82114 95.7575 4.36 95.2427 5.5569L92.068 12.3108V15.5595C92.068 17.0983 92.2396 18.6372 92.8402 20.1761H87.8636C88.4642 18.5517 88.55 17.0129 88.55 15.5595V12.3108L85.3753 5.72788C84.7747 4.4455 83.8308 2.82114 83.0586 2.13721H88.8074C88.6358 2.39368 88.55 2.82114 88.55 3.16311C88.55 3.84705 88.8074 4.70197 89.1506 5.5569L91.5531 11.0284L93.8698 5.5569C94.213 4.70197 94.4704 3.84705 94.4704 3.16311C94.4704 2.73565 94.3846 2.39368 94.213 2.2227H97.6452V2.13721Z" fill="white"/>
<path d="M109.743 15.2175L109.828 20.1761H98.7598C99.3604 18.5517 99.532 17.0129 99.532 15.5595V6.75379C99.532 5.21493 99.3604 3.67607 98.7598 2.13721H109.828L109.743 7.09576C108.456 4.87296 106.911 3.50508 103.393 3.24861H103.136C103.05 4.4455 103.05 5.64239 103.05 6.75379V10.259H103.393C105.452 10.259 106.825 9.74602 108.37 8.12166V13.6787C106.825 12.0543 105.452 11.4559 103.393 11.4559H103.05V15.5595C103.05 16.6709 103.05 17.8678 103.222 19.0647H103.307C107.083 18.9792 108.37 17.5258 109.743 15.2175Z" fill="white"/>
<path d="M129.135 10.8574C129.135 17.0129 125.617 20.2616 121.155 20.2616H115.578C116.179 18.6372 116.35 17.0983 116.35 15.645V6.75379C116.35 5.12944 116.093 3.50508 115.578 2.13721H121.327C125.446 2.13721 129.135 4.53099 129.135 10.8574ZM125.446 11.5414C125.446 6.83928 123.987 3.24861 120.726 3.24861H120.04C119.954 4.4455 119.954 5.5569 119.954 6.75379V15.5595C119.954 16.6709 119.954 17.8678 120.126 19.0647C120.383 19.0647 120.726 19.0647 120.984 19.0647C124.416 19.1502 125.446 15.645 125.446 11.5414Z" fill="white"/>
<path d="M141.747 15.2175L141.832 20.1761H130.764C131.364 18.5517 131.536 17.0129 131.536 15.5595V6.75379C131.536 5.21493 131.364 3.67607 130.764 2.13721H141.832L141.747 7.09576C140.459 4.87296 138.915 3.50508 135.397 3.24861H135.14C135.054 4.4455 135.054 5.64239 135.054 6.75379V10.259H135.397C137.456 10.259 138.829 9.74602 140.374 8.12166V13.6787C138.829 12.0543 137.456 11.4559 135.397 11.4559H135.054V15.5595C135.054 16.6709 135.054 17.8678 135.225 19.0647H135.311C139.087 18.9792 140.459 17.5258 141.747 15.2175Z" fill="white"/>
<path d="M150.843 5.47153C150.843 6.75392 151.615 7.60884 153.932 9.06221L156.163 10.4301C157.793 11.456 159.166 12.7384 159.166 14.9612C159.166 18.2954 156.506 20.6037 153.503 20.6037C150.928 20.6037 148.612 18.9793 147.668 16.0726L150.585 14.1917C151.787 17.6114 153.245 18.8083 154.704 18.8083C155.905 18.8083 156.677 18.0389 156.677 16.9275C156.677 15.6451 156.163 14.7902 154.275 13.6788L151.358 11.8835C149.47 10.7721 148.097 9.74614 148.097 7.35236C148.097 4.44563 150.757 1.88086 154.875 1.88086C156.163 1.88086 157.535 2.13734 158.565 2.39381L157.879 7.86532C156.763 5.72801 154.704 3.6762 152.73 3.6762C151.615 3.6762 150.843 4.36013 150.843 5.47153Z" fill="white"/>
<path d="M168.346 3.16316V15.5595C168.346 17.0984 168.518 18.6373 169.204 20.1761H163.97C164.571 18.5518 164.828 17.0129 164.828 15.5595V3.16316C162.34 3.16316 161.31 4.27456 160.023 7.60875L160.109 2.05176H173.066L173.151 7.60875C171.864 4.18906 170.835 3.16316 168.346 3.16316Z" fill="white"/>
<path d="M179.844 11.627H172.551V12.5674H179.844V11.627Z" fill="white"/>
<path d="M197.606 15.645C197.606 17.1838 197.778 18.6372 198.378 20.2616H193.745C194.346 18.6372 194.517 17.1838 194.517 15.645V7.01026L190.055 20.2616H188.425L183.792 6.83928V15.645C183.792 17.1838 183.963 18.6372 184.564 20.2616H181.732C182.333 18.6372 182.505 17.1838 182.505 15.645V5.89887C182.505 4.53099 182.333 3.16311 181.732 2.13721H187.138C186.966 2.39368 186.881 2.90664 186.881 3.41959C186.881 4.27451 187.052 5.30042 187.395 6.32633L190.313 15.474L193.23 6.32633C193.487 5.4714 193.745 4.4455 193.745 3.50508C193.745 2.90664 193.659 2.39368 193.402 2.13721H198.378C197.692 3.16311 197.606 4.53099 197.606 5.89887V15.645Z" fill="white"/>
<path d="M208.502 20.1762C208.759 19.8342 208.845 19.0648 208.845 18.2954C208.845 17.5259 208.759 16.7565 208.502 15.9871L207.987 14.2772H203.611L203.096 15.9871C202.924 16.671 202.753 17.4404 202.753 18.1244C202.753 18.9793 202.924 19.8342 203.182 20.1762H199.578C200.522 19.1503 201.123 17.6969 201.723 15.8161L206.185 1.88086H207.901L212.363 15.8161C212.963 17.5259 213.478 18.9793 214.336 20.1762H208.502ZM207.815 13.4223L205.928 6.49744L203.954 13.4223H207.815Z" fill="white"/>
<path d="M227.38 2.13725C226.779 3.7616 226.608 5.21497 226.608 6.75383V14.9611C226.608 17.4404 225.492 20.6891 220.773 20.6891C216.14 20.6891 215.11 17.4404 215.11 14.9611V6.66834C215.11 5.12948 214.939 3.67611 214.338 2.05176H219.314C218.714 3.67611 218.628 5.12948 218.628 6.66834V14.7901C218.628 17.1839 219.829 18.4663 221.974 18.4663C224.034 18.4663 225.149 17.1839 225.149 14.7901V6.66834C225.149 5.12948 224.978 3.67611 224.291 2.05176H227.38V2.13725Z" fill="white"/>
<path d="M242.481 20.1761H237.933L236.217 14.2771C235.874 13.0802 235.531 12.6528 235.016 12.5673C234.501 12.5673 233.901 12.5673 233.3 12.5673V15.5595C233.3 17.0983 233.557 18.6372 234.072 20.1761H229.096C229.696 18.5517 229.782 17.0129 229.782 15.5595V6.75379C229.782 5.21493 229.61 3.67607 229.01 2.13721H235.359C238.277 2.13721 241.28 3.24861 241.28 7.09576C241.28 9.57503 239.649 11.1139 238.191 11.7978C239.22 11.9688 239.649 12.4818 240.078 13.8496L241.194 17.5258C241.451 18.4662 241.88 19.3211 242.481 20.1761ZM233.986 11.5414C236.303 11.5414 237.59 10.8574 237.59 7.52322C237.59 4.78747 236.389 3.16311 234.415 3.16311C234.072 3.16311 233.729 3.16311 233.472 3.16311C233.472 4.36 233.386 5.5569 233.386 6.6683V11.4559H233.986V11.5414Z" fill="white"/>
<path d="M244.54 15.5595V6.75379C244.54 5.21493 244.368 3.67607 243.768 2.13721H248.83C248.229 3.76156 248.058 5.30042 248.058 6.75379V15.5595C248.058 17.0983 248.229 18.6372 248.744 20.1761H243.768C244.368 18.6372 244.54 17.0983 244.54 15.5595Z" fill="white"/>
<path d="M257.411 20.6037C253.807 20.6037 250.375 17.4405 250.375 11.2851C250.375 5.81359 253.636 1.70996 258.784 1.70996C260.242 1.70996 261.529 2.05193 262.13 2.30841L261.444 7.35245C260.071 4.87317 258.612 3.5053 256.724 3.5053C254.494 3.5053 253.721 5.6426 253.721 9.23328C253.721 14.7048 256.21 17.4405 259.384 17.4405C260.586 17.4405 261.444 17.0131 262.302 16.5001C262.044 18.9794 259.985 20.6037 257.411 20.6037Z" fill="white"/>
<path d="M274.829 15.2175L274.914 20.1761H263.846C264.446 18.5517 264.618 17.0129 264.618 15.5595V6.75379C264.618 5.21493 264.446 3.67607 263.846 2.13721H274.914L274.829 7.09576C273.541 4.87296 271.997 3.50508 268.479 3.24861H268.222C268.136 4.4455 268.136 5.64239 268.136 6.75379V10.259H268.479C270.538 10.259 271.911 9.74602 273.456 8.12166V13.6787C271.911 12.0543 270.538 11.4559 268.479 11.4559H268.136V15.5595C268.136 16.6709 268.136 17.8678 268.307 19.0647H268.393C272.169 18.9792 273.541 17.5258 274.829 15.2175Z" fill="white"/>
<path d="M105.967 27.614H108.97V28.298H106.653V29.9223H108.455V30.6062H106.653V33H105.967V27.614Z" fill="white"/>
<path d="M110.258 30.2641C110.258 28.7252 111.459 27.5283 113.004 27.5283C114.548 27.5283 115.749 28.7252 115.749 30.2641C115.749 31.8029 114.548 32.9998 113.004 32.9998C111.459 32.9998 110.258 31.8029 110.258 30.2641ZM114.977 30.2641C114.977 29.0672 114.119 28.2123 113.004 28.2123C111.888 28.2123 111.03 29.0672 111.03 30.2641C111.03 31.461 111.888 32.3159 113.004 32.3159C114.119 32.3159 114.977 31.461 114.977 30.2641Z" fill="white"/>
<path d="M118.409 29.1531V32.9148H117.723V27.6143L121.498 31.4614V27.6998H122.184V33.0003L118.409 29.1531Z" fill="white"/>
<path d="M124.5 27.6143H126.044C127.675 27.6143 128.876 28.7257 128.876 30.2645C128.876 31.8034 127.675 32.9148 126.044 32.9148H124.5V27.6143ZM126.13 32.3163C127.417 32.3163 128.275 31.4614 128.275 30.35C128.275 29.2386 127.417 28.3837 126.13 28.3837H125.272V32.4018H126.13V32.3163Z" fill="white"/>
<path d="M130.936 27.6141H134.024V28.298H131.622V29.9223H133.595V30.6063H131.622V32.3161H134.024V33.0001H130.936V27.6141ZM132.223 27.1866L132.823 26.0752H133.595L132.737 27.1866H132.223Z" fill="white"/>
<path d="M135.998 27.614H139.087V28.298H136.684V29.9223H138.658V30.6062H136.684V32.3161H139.087V33H135.998V27.614Z" fill="white"/>
<path d="M143.893 27.6143H146.982V28.2982H144.579V29.9225H146.552V30.6065H144.579V32.3163H146.982V33.0003H143.893V27.6143Z" fill="white"/>
<path d="M149.727 29.1531V32.9148H149.041V27.6143L152.816 31.4614V27.6998H153.503V33.0003L149.727 29.1531Z" fill="white"/>
<path d="M158.307 32.1453L158.821 31.7179C158.993 32.0599 159.422 32.3163 159.851 32.3163C160.538 32.3163 160.967 31.8034 160.967 31.2049C160.967 30.521 160.538 30.008 159.765 30.008C159.336 30.008 159.079 30.2645 158.907 30.4355L158.478 30.2645V27.6143H161.138V28.2127H159.079V29.6661C159.336 29.5806 159.508 29.4951 159.765 29.4951C160.881 29.4951 161.567 30.2645 161.567 31.2049C161.567 32.1453 160.881 32.9148 159.765 32.9148C159.165 33.0003 158.564 32.6583 158.307 32.1453Z" fill="white"/>
<path d="M163.541 28.2127H162.512L163.027 27.6143H164.142V32.9148H163.541V28.2127Z" fill="white"/>
<path d="M165.857 32.1451L166.372 31.7176C166.544 32.0596 166.973 32.3161 167.402 32.3161C168.088 32.3161 168.517 31.8031 168.517 31.2047C168.517 30.5208 168.088 30.0078 167.316 30.0078C166.887 30.0078 166.63 30.2643 166.458 30.4353L166.029 30.2643V27.614H168.689V28.2125H166.63V29.6658C166.887 29.5803 167.059 29.4948 167.316 29.4948C168.432 29.4948 169.118 30.2643 169.118 31.2047C169.118 32.1451 168.432 32.9145 167.316 32.9145C166.715 33 166.115 32.6581 165.857 32.1451Z" fill="white"/>
</g>
<defs>
<clipPath id="clip0_412_42764">
<rect width="275" height="33" fill="white"/>
</clipPath>
</defs>
</svg>
