<svg width="207" height="25" viewBox="0 0 207 25" fill="none" xmlns="http://www.w3.org/2000/svg">
<g clip-path="url(#clip0_27_3747)">
<path d="M15.5654 7.18912H15.307V6.15285C15.307 5.44041 14.7257 4.92228 14.0799 4.92228C13.3694 4.92228 12.8527 5.50518 12.8527 6.15285V7.12435H9.68799V4.08031H10.6568C11.3672 4.08031 11.8839 3.49741 11.8839 2.84974C11.8839 2.13731 11.3027 1.61917 10.6568 1.61917H9.68799V1.23057C9.68799 0.582902 9.10671 0 8.39626 0C7.6858 0 7.16911 0.582902 7.16911 1.23057V1.48964H6.20031C5.48986 1.48964 4.97317 2.07254 4.97317 2.72021C4.97317 3.43264 5.55445 3.95078 6.20031 3.95078H7.16911V7.05959H4.06895V6.15285C4.06895 5.44041 3.48768 4.92228 2.84181 4.92228C2.13136 4.92228 1.61466 5.50518 1.61466 6.15285V7.12435H1.22714C0.581279 7.18912 0 7.70725 0 8.41969C0 9.13212 0.581279 9.71503 1.22714 9.71503H1.48549V10.6865C1.48549 11.399 2.06677 11.9171 2.71264 11.9171C3.42309 11.9171 3.93978 11.3342 3.93978 10.6865V9.71503H7.03994V12.8238H6.20031C5.48986 12.8238 4.97317 13.4067 4.97317 14.0544C4.97317 14.7668 5.55445 15.285 6.20031 15.285H7.16911V15.544C7.16911 16.2565 7.75039 16.7746 8.39626 16.7746C9.10671 16.7746 9.6234 16.1917 9.6234 15.544V15.285H10.5922C11.3027 15.285 11.8193 14.7021 11.8193 14.0544C11.8193 13.342 11.2381 12.8238 10.5922 12.8238H9.68799V9.71503H12.7881V10.6865C12.7881 11.399 13.3694 11.9171 14.0153 11.9171C14.7257 11.9171 15.2424 11.3342 15.2424 10.6865V9.71503H15.5008C16.2112 9.71503 16.7279 9.13212 16.7279 8.48446C16.7925 7.70725 16.2758 7.18912 15.5654 7.18912Z" fill="black"/>
<path d="M27.3204 15.3499C27.5141 15.0908 27.5787 14.5079 27.5787 13.925C27.5787 13.3421 27.5141 12.7592 27.3204 12.1763L26.9329 10.8809H23.5744L23.1868 12.1763C23.0577 12.6944 22.9285 13.2773 22.9285 13.7954C22.9285 14.4431 23.0577 15.0908 23.2514 15.3499H20.668C21.3784 14.5726 21.8305 13.4716 22.2826 12.0467L25.6411 1.48975H26.9329L30.2914 12.0467C30.7435 13.3421 31.131 14.4431 31.7769 15.3499H27.3204ZM26.8037 10.1685L25.3828 4.92239L23.8973 10.1685H26.8037Z" fill="black"/>
<path d="M42.2403 11.4637C42.2403 13.8601 40.3673 15.3497 37.7193 15.3497H32.7461C33.1982 14.1191 33.3274 13.1476 33.3274 11.8523V5.11655C33.3274 3.82121 33.1982 2.78494 32.7461 1.61914H37.7193C39.8506 1.61914 41.7882 2.59064 41.7882 4.79272C41.7882 6.60619 40.5611 7.83676 39.1402 8.22536C40.5611 8.54919 42.2403 9.39116 42.2403 11.4637ZM35.9754 2.46111C35.9108 3.36785 35.9108 4.27458 35.9108 5.11655V7.96629H37.0734C38.4297 7.96629 39.011 6.93002 39.011 5.37562C39.011 3.43261 38.1714 2.46111 36.5567 2.46111C36.3629 2.46111 36.1692 2.46111 35.9754 2.46111ZM39.4631 11.9818C39.4631 9.9093 38.4297 8.74349 36.815 8.74349C36.6213 8.74349 36.2984 8.74349 35.9754 8.80826V11.7875C35.9754 12.5647 35.9754 13.5362 36.04 14.3134C36.4275 14.443 36.815 14.443 37.138 14.443C38.8172 14.443 39.4631 13.6658 39.4631 11.9818Z" fill="black"/>
<path d="M52.8323 11.4637C52.8323 13.8601 50.9592 15.3497 48.3112 15.3497H43.2734C43.7255 14.1191 43.8547 13.1476 43.8547 11.8523V5.11655C43.8547 3.82121 43.7255 2.78494 43.2734 1.61914H48.2466C50.378 1.61914 52.3156 2.59064 52.3156 4.79272C52.3156 6.60619 51.0884 7.83676 49.6675 8.22536C51.153 8.54919 52.8323 9.39116 52.8323 11.4637ZM46.5674 2.46111C46.5028 3.36785 46.5028 4.27458 46.5028 5.11655V7.96629H47.6653C49.0216 7.96629 49.6029 6.93002 49.6029 5.37562C49.6029 3.43261 48.7633 2.46111 47.1486 2.46111C46.9549 2.46111 46.7611 2.46111 46.5674 2.46111ZM49.9904 11.9818C49.9904 9.9093 48.9571 8.74349 47.3424 8.74349C47.1486 8.74349 46.8257 8.74349 46.5028 8.80826V11.7875C46.5028 12.5647 46.5028 13.5362 46.5674 14.3134C46.9549 14.443 47.3424 14.443 47.6653 14.443C49.3446 14.443 49.9904 13.6658 49.9904 11.9818Z" fill="black"/>
<path d="M59.4847 15.3499C59.6785 15.0908 59.7431 14.5079 59.7431 13.925C59.7431 13.3421 59.6785 12.7592 59.4847 12.1763L59.0972 10.8809H55.7387L55.3512 12.1763C55.222 12.6944 55.0928 13.2773 55.0928 13.7954C55.0928 14.4431 55.222 15.0908 55.4158 15.3499H52.7031C53.4136 14.5726 53.8657 13.4716 54.3178 12.0467L57.6763 1.48975H58.968L62.3265 12.0467C62.7786 13.3421 63.1662 14.4431 63.812 15.3499H59.4847ZM58.968 10.1685L57.5471 4.92239L56.0616 10.1685H58.968Z" fill="black"/>
<path d="M73.4993 1.61914C72.8534 2.13728 72.0783 3.30308 71.6908 4.20981L69.3011 9.3264V11.7875C69.3011 12.9533 69.4303 14.1191 69.8824 15.2849H66.1364C66.5885 14.0544 66.6531 12.8886 66.6531 11.7875V9.3264L64.2634 4.33935C63.8113 3.36785 63.1008 2.13728 62.5195 1.61914H66.8468C66.7177 1.81344 66.6531 2.13728 66.6531 2.39634C66.6531 2.91448 66.8468 3.56215 67.1052 4.20981L68.9136 8.35489L70.6574 4.20981C70.9158 3.56215 71.1095 2.91448 71.1095 2.39634C71.1095 2.07251 71.045 1.81344 70.9158 1.68391H73.4993V1.61914Z" fill="black"/>
<path d="M82.6069 11.5285L82.6715 15.2849H74.3398C74.7919 14.0544 74.9211 12.8886 74.9211 11.7875V5.11655C74.9211 3.95075 74.7919 2.78494 74.3398 1.61914H82.6715L82.6069 5.37562C81.6381 3.69168 80.4756 2.65541 77.8275 2.46111H77.6338C77.5692 3.36785 77.5692 4.27458 77.5692 5.11655V7.77199H77.8275C79.3776 7.77199 80.411 7.38339 81.5735 6.15282V10.3627C80.411 9.13209 79.3776 8.67873 77.8275 8.67873H77.5692V11.7875C77.5692 12.6295 77.5692 13.5362 77.6983 14.443H77.7629C80.6047 14.3782 81.5735 13.2772 82.6069 11.5285Z" fill="black"/>
<path d="M97.2047 8.22536C97.2047 12.8886 94.5566 15.3497 91.1981 15.3497H87C87.4521 14.1191 87.5813 12.9533 87.5813 11.8523V5.11655C87.5813 3.88598 87.3875 2.65541 87 1.61914H91.3273C94.4275 1.61914 97.2047 3.43261 97.2047 8.22536ZM94.4275 8.74349C94.4275 5.18132 93.3295 2.46111 90.8752 2.46111H90.3585C90.2939 3.36785 90.2939 4.20981 90.2939 5.11655V11.7875C90.2939 12.6295 90.2939 13.5362 90.4231 14.443C90.6169 14.443 90.8752 14.443 91.069 14.443C93.6524 14.5077 94.4275 11.8523 94.4275 8.74349Z" fill="black"/>
<path d="M106.697 11.5285L106.761 15.2849H98.4297C98.8818 14.0544 99.011 12.8886 99.011 11.7875V5.11655C99.011 3.95075 98.8818 2.78494 98.4297 1.61914H106.761L106.697 5.37562C105.728 3.69168 104.565 2.65541 101.917 2.46111H101.724C101.659 3.36785 101.659 4.27458 101.659 5.11655V7.77199H101.917C103.467 7.77199 104.501 7.38339 105.663 6.15282V10.3627C104.501 9.13209 103.467 8.67873 101.917 8.67873H101.659V11.7875C101.659 12.6295 101.659 13.5362 101.788 14.443H101.853C104.695 14.3782 105.728 13.2772 106.697 11.5285Z" fill="black"/>
<path d="M113.542 4.14501C113.542 5.11651 114.123 5.76418 115.867 6.86522L117.546 7.90149C118.774 8.67869 119.807 9.65019 119.807 11.3341C119.807 13.86 117.805 15.6087 115.544 15.6087C113.607 15.6087 111.863 14.3782 111.152 12.1761L113.348 10.7512C114.252 13.3419 115.35 14.2486 116.448 14.2486C117.353 14.2486 117.934 13.6657 117.934 12.8238C117.934 11.8523 117.546 11.2046 116.126 10.3626L113.93 9.00253C112.509 8.16056 111.475 7.38335 111.475 5.56988C111.475 3.36781 113.477 1.4248 116.578 1.4248C117.546 1.4248 118.58 1.61911 119.355 1.81341L118.838 5.95848C117.999 4.33931 116.448 2.78491 114.963 2.78491C114.123 2.78491 113.542 3.30304 113.542 4.14501Z" fill="black"/>
<path d="M126.718 2.39617V11.7874C126.718 12.9532 126.847 14.119 127.364 15.2848H123.424C123.876 14.0542 124.07 12.8884 124.07 11.7874V2.39617C122.197 2.39617 121.422 3.23814 120.453 5.76404L120.518 1.5542H130.27L130.335 5.76404C129.366 3.17337 128.591 2.39617 126.718 2.39617Z" fill="black"/>
<path d="M135.373 8.80811H129.883V9.52054H135.373V8.80811Z" fill="black"/>
<path d="M148.741 11.8523C148.741 13.0181 148.871 14.1191 149.323 15.3497H145.835C146.287 14.1191 146.416 13.0181 146.416 11.8523V5.31085L143.058 15.3497H141.831L138.343 5.18132V11.8523C138.343 13.0181 138.472 14.1191 138.924 15.3497H136.793C137.245 14.1191 137.374 13.0181 137.374 11.8523V4.46888C137.374 3.43261 137.245 2.39634 136.793 1.61914H140.862C140.733 1.81344 140.668 2.20204 140.668 2.59064C140.668 3.23831 140.797 4.01551 141.056 4.79272L143.252 11.7228L145.448 4.79272C145.641 4.14505 145.835 3.36785 145.835 2.65541C145.835 2.20204 145.77 1.81344 145.577 1.61914H149.323C148.806 2.39634 148.741 3.43261 148.741 4.46888V11.8523Z" fill="black"/>
<path d="M156.944 15.2849C157.137 15.0258 157.202 14.4429 157.202 13.86C157.202 13.2771 157.137 12.6942 156.944 12.1113L156.556 10.816H153.262L152.875 12.1113C152.745 12.6295 152.616 13.2124 152.616 13.7305C152.616 14.3782 152.745 15.0258 152.939 15.2849H150.227C150.937 14.5077 151.389 13.4067 151.841 11.9818L155.2 1.4248H156.491L159.85 11.9818C160.302 13.2771 160.69 14.3782 161.335 15.2849H156.944ZM156.427 10.1683L155.006 4.92221L153.52 10.1683H156.427Z" fill="black"/>
<path d="M171.153 1.61897C170.701 2.84954 170.572 3.95057 170.572 5.11638V11.334C170.572 13.2122 169.732 15.6734 166.18 15.6734C162.692 15.6734 161.917 13.2122 161.917 11.334V5.05161C161.917 3.88581 161.788 2.78477 161.336 1.5542H165.082C164.63 2.78477 164.565 3.88581 164.565 5.05161V11.2045C164.565 13.0179 165.469 13.9894 167.084 13.9894C168.634 13.9894 169.474 13.0179 169.474 11.2045V5.05161C169.474 3.88581 169.345 2.78477 168.828 1.5542H171.153V1.61897Z" fill="black"/>
<path d="M182.523 15.2849H179.1L177.808 10.816C177.55 9.9093 177.291 9.58546 176.904 9.5207C176.516 9.5207 176.064 9.5207 175.612 9.5207V11.7875C175.612 12.9533 175.806 14.1191 176.193 15.2849H172.447C172.9 14.0544 172.964 12.8886 172.964 11.7875V5.11655C172.964 3.95075 172.835 2.78494 172.383 1.61914H177.162C179.358 1.61914 181.619 2.46111 181.619 5.37562C181.619 7.25386 180.392 8.41966 179.294 8.93779C180.069 9.06733 180.392 9.45593 180.714 10.4922L181.554 13.2772C181.748 13.9896 182.071 14.6373 182.523 15.2849ZM176.129 8.74349C177.873 8.74349 178.841 8.22536 178.841 5.69945C178.841 3.62691 177.937 2.39634 176.452 2.39634C176.193 2.39634 175.935 2.39634 175.741 2.39634C175.741 3.30308 175.677 4.20981 175.677 5.05178V8.67873H176.129V8.74349Z" fill="black"/>
<path d="M184.073 11.7875V5.11655C184.073 3.95075 183.944 2.78494 183.492 1.61914H187.303C186.851 2.84971 186.722 4.01551 186.722 5.11655V11.7875C186.722 12.9533 186.851 14.1191 187.238 15.2849H183.492C183.944 14.1191 184.073 12.9533 184.073 11.7875Z" fill="black"/>
<path d="M193.761 15.6089C191.048 15.6089 188.465 13.2125 188.465 8.5493C188.465 4.40422 190.919 1.29541 194.794 1.29541C195.892 1.29541 196.861 1.55448 197.313 1.74878L196.797 5.57002C195.763 3.69178 194.665 2.65551 193.244 2.65551C191.565 2.65551 190.984 4.27469 190.984 6.99489C190.984 11.14 192.857 13.2125 195.246 13.2125C196.151 13.2125 196.797 12.8887 197.442 12.5001C197.249 14.3783 195.699 15.6089 193.761 15.6089Z" fill="black"/>
<path d="M206.873 11.5285L206.937 15.2849H198.605C199.058 14.0544 199.187 12.8886 199.187 11.7875V5.11655C199.187 3.95075 199.058 2.78494 198.605 1.61914H206.937L206.873 5.37562C205.904 3.69168 204.741 2.65541 202.093 2.46111H201.899C201.835 3.36785 201.835 4.27458 201.835 5.11655V7.77199H202.093C203.643 7.77199 204.677 7.38339 205.839 6.15282V10.3627C204.677 9.13209 203.643 8.67873 202.093 8.67873H201.835V11.7875C201.835 12.6295 201.835 13.5362 201.964 14.443H202.029C204.87 14.3782 205.904 13.2772 206.873 11.5285Z" fill="black"/>
<path d="M79.7656 20.9199H82.0262V21.4381H80.2823V22.6686H81.6386V23.1868H80.2823V25.0002H79.7656V20.9199Z" fill="black"/>
<path d="M82.9961 22.9275C82.9961 21.7617 83.9003 20.855 85.0629 20.855C86.2254 20.855 87.1296 21.7617 87.1296 22.9275C87.1296 24.0933 86.2254 25.0001 85.0629 25.0001C83.9003 25.0001 82.9961 24.0933 82.9961 22.9275ZM86.5484 22.9275C86.5484 22.0208 85.9025 21.3731 85.0629 21.3731C84.2232 21.3731 83.5774 22.0208 83.5774 22.9275C83.5774 23.8343 84.2232 24.4819 85.0629 24.4819C85.9025 24.4819 86.5484 23.8343 86.5484 22.9275Z" fill="black"/>
<path d="M89.13 22.0857V24.9355H88.6133V20.9199L91.4551 23.8344V20.9847H91.9718V25.0002L89.13 22.0857Z" fill="black"/>
<path d="M93.7148 20.9199H94.8774C96.1045 20.9199 97.0088 21.7619 97.0088 22.9277C97.0088 24.0935 96.1045 24.9355 94.8774 24.9355H93.7148V20.9199ZM94.942 24.4821C95.9108 24.4821 96.5566 23.8344 96.5566 22.9925C96.5566 22.1505 95.9108 21.5028 94.942 21.5028H94.2961V24.5469H94.942V24.4821Z" fill="black"/>
<path d="M98.5586 20.9197H100.884V21.4378H99.0753V22.6684H100.561V23.1865H99.0753V24.4819H100.884V25H98.5586V20.9197ZM99.5274 20.5959L99.9795 19.7539H100.561L99.9149 20.5959H99.5274Z" fill="black"/>
<path d="M102.371 20.9199H104.696V21.4381H102.888V22.6686H104.373V23.1868H102.888V24.4821H104.696V25.0002H102.371V20.9199Z" fill="black"/>
<path d="M108.312 20.9199H110.638V21.4381H108.829V22.6686H110.315V23.1868H108.829V24.4821H110.638V25.0002H108.312V20.9199Z" fill="black"/>
<path d="M112.704 22.0857V24.9355H112.188V20.9199L115.029 23.8344V20.9847H115.546V25.0002L112.704 22.0857Z" fill="black"/>
<path d="M119.164 24.3526L119.552 24.0287C119.681 24.2878 120.004 24.4821 120.327 24.4821C120.843 24.4821 121.166 24.0935 121.166 23.6401C121.166 23.122 120.843 22.7334 120.262 22.7334C119.939 22.7334 119.745 22.9277 119.616 23.0572L119.293 22.9277V20.9199H121.295V21.3733H119.745V22.4743C119.939 22.4096 120.068 22.3448 120.262 22.3448C121.102 22.3448 121.618 22.9277 121.618 23.6401C121.618 24.3526 121.102 24.9355 120.262 24.9355C119.81 25.0002 119.358 24.7412 119.164 24.3526Z" fill="black"/>
<path d="M123.103 21.3733H122.328L122.716 20.9199H123.555V24.9355H123.103V21.3733Z" fill="black"/>
<path d="M124.848 24.3526L125.235 24.0287C125.364 24.2878 125.687 24.4821 126.01 24.4821C126.527 24.4821 126.85 24.0935 126.85 23.6401C126.85 23.122 126.527 22.7334 125.946 22.7334C125.623 22.7334 125.429 22.9277 125.3 23.0572L124.977 22.9277V20.9199H126.979V21.3733H125.429V22.4743C125.623 22.4096 125.752 22.3448 125.946 22.3448C126.785 22.3448 127.302 22.9277 127.302 23.6401C127.302 24.3526 126.785 24.9355 125.946 24.9355C125.494 25.0002 125.041 24.7412 124.848 24.3526Z" fill="black"/>
</g>
<defs>
<clipPath id="clip0_27_3747">
<rect width="207" height="25" fill="white"/>
</clipPath>
</defs>
</svg>
