<svg width="42" height="63" viewBox="0 0 42 63" fill="none" xmlns="http://www.w3.org/2000/svg">
<path d="M27.37 46.3125C33.02 44.025 37.4325 39.6875 39.8075 34.075C44.62 22.725 39.4825 9.625 28.3575 4.4875L30.045 0.775L28.9075 0.25L26.045 6.525L27.1825 7.05L27.8325 5.6125C38.345 10.4625 43.2075 22.8375 38.6575 33.575C36.4075 38.875 32.2325 42.975 26.895 45.1375C21.62 47.275 15.8325 47.2375 10.5825 45.0625L11.1325 43.775L9.98249 43.2875L7.48249 49.1625L8.63249 49.65L10.095 46.2C12.62 47.25 15.27 47.8125 17.92 47.9125V49.8125H11.2575V54.275H7.11999L1.94499 57.925V62.775H35.52V57.925L30.345 54.275H25.7325V49.8125H19.17V47.9375C21.945 47.9 24.72 47.35 27.37 46.275V46.3125ZM29.9575 55.55L34.27 58.6V61.5625H3.20749V58.6L7.51999 55.55H29.9575ZM24.4825 54.3H12.52V51.0875H24.4825V54.3Z" fill="#BF9C5A"/>
<path d="M11.57 42.2875C13.9325 43.2875 16.3825 43.7625 18.8075 43.7625C26.045 43.7625 32.945 39.5125 35.945 32.4375C39.945 23 35.5325 12.075 26.095 8.075C21.52 6.1375 16.47 6.1 11.87 7.95C7.26999 9.8125 3.66999 13.35 1.73249 17.925C-0.20501 22.5 -0.24251 27.55 1.60749 32.15C3.46999 36.75 7.00749 40.35 11.5825 42.2875H11.57ZM2.86999 18.4125C4.68249 14.15 8.03249 10.85 12.3325 9.1125C14.4325 8.2625 16.6325 7.8375 18.8325 7.8375C21.0325 7.8375 23.42 8.3 25.595 9.225C34.395 12.9625 38.52 23.15 34.7825 31.95C31.045 40.75 20.8575 44.875 12.0575 41.1375C7.79499 39.325 4.49499 35.975 2.75749 31.675C1.01999 27.3875 1.05749 22.675 2.86999 18.4125Z" fill="#BF9C5A"/>
</svg>
