<svg width="28" height="26" viewBox="0 0 28 26" fill="none" xmlns="http://www.w3.org/2000/svg">
<path d="M27.0804 3.26667H23.7337V1.88667C23.7337 0.893336 22.9271 0.0866699 21.9337 0.0866699C20.9404 0.0866699 20.1337 0.893336 20.1337 1.88667V3.26667H7.86706V1.88667C7.86706 0.893336 7.06039 0.0866699 6.06706 0.0866699C5.07372 0.0866699 4.26706 0.893336 4.26706 1.88667V3.26667H0.92039C0.633724 3.26667 0.400391 3.5 0.400391 3.78667V23.6333L2.68039 25.9133H25.3204L27.6004 23.6333V3.78667C27.6004 3.5 27.3671 3.26667 27.0804 3.26667ZM3.14706 24.8733L1.44706 23.1733V9.39334H26.5537V23.1733L24.8537 24.8733H3.14706ZM6.06706 7.21334C7.06039 7.21334 7.86706 6.40667 7.86706 5.41334V4.30667H20.1337V5.41334C20.1337 6.40667 20.9404 7.21334 21.9337 7.21334C22.9271 7.21334 23.7337 6.40667 23.7337 5.41334V4.30667H26.5537V8.35334H1.44706V4.30667H4.26706V5.41334C4.26706 6.40667 5.07372 7.21334 6.06706 7.21334ZM5.30706 1.88667C5.30706 1.46667 5.64706 1.12667 6.06706 1.12667C6.48706 1.12667 6.82039 1.46667 6.82039 1.88667V5.41334C6.82039 5.82667 6.48039 6.16667 6.06706 6.16667C5.65372 6.16667 5.30706 5.82667 5.30706 5.41334V1.88667V1.88667ZM22.6937 5.40667C22.6937 5.62 22.6204 5.80667 22.4871 5.95334C22.3337 6.10667 22.1471 6.18667 21.9337 6.18667C21.5137 6.18667 21.1871 5.84667 21.1804 5.41334V1.88C21.1804 1.67334 21.2471 1.49334 21.4004 1.34C21.5404 1.19334 21.7204 1.11334 21.9137 1.11334H21.9337C22.3471 1.11334 22.6804 1.45334 22.6937 1.88667V5.40667Z" fill="#B49A5D"/>
</svg>
