<svg width="23" height="28" viewBox="0 0 23 28" fill="none" xmlns="http://www.w3.org/2000/svg">
<path d="M22.0809 8.76003L22.0542 8.7067L22.0275 8.67337L21.9875 8.6067L14.3875 1.0067L14.3475 0.986699L14.2742 0.933366L14.2342 0.913366C14.1609 0.886699 14.0875 0.866699 14.0142 0.866699H3.97419C3.14753 0.866699 2.36753 1.1867 1.78753 1.77337C1.20086 2.36003 0.880859 3.13337 0.880859 3.96003V24.04C0.880859 24.8534 1.21419 25.6534 1.78753 26.2267C2.37419 26.8134 3.14753 27.1334 3.97419 27.1334H19.0342C19.8609 27.1334 20.6409 26.8134 21.2209 26.2267C21.7942 25.6534 22.1275 24.8534 22.1275 24.04V8.98003C22.1275 8.9067 22.1142 8.83337 22.0809 8.76003ZM20.1342 8.40003H14.5942V2.86003L20.1342 8.40003ZM19.0342 25.9734H3.97419C3.46086 25.9734 2.97419 25.7734 2.61419 25.4067C2.25419 25.0467 2.04753 24.5534 2.04753 24.0467V3.96003C2.04753 3.4467 2.24753 2.96003 2.61419 2.60003C2.97419 2.23337 3.46086 2.03337 3.97419 2.03337H13.4275V8.98003C13.4275 9.30003 13.6875 9.5667 14.0142 9.5667H20.9609V24.0467C20.9609 24.5534 20.7542 25.0467 20.3942 25.4067C20.0342 25.7734 19.5475 25.9734 19.0342 25.9734V25.9734Z" fill="#B49A5D"/>
</svg>
