<svg width="59" height="59" viewBox="0 0 59 59" fill="none" xmlns="http://www.w3.org/2000/svg">
<path d="M28.9735 29.887C28.9078 29.6242 28.9735 29.3614 29.1706 29.1643C29.3677 28.9672 29.6305 28.9015 29.8933 28.9672C30.3532 29.0329 40.6681 31.3981 48.6179 39.3478C56.5019 47.2975 58.8014 57.6125 58.9328 58.0724C58.9985 58.3352 58.9328 58.598 58.7357 58.7951C58.6043 58.9265 58.4072 58.9922 58.2101 58.9922C58.1444 58.9922 58.0787 58.9922 58.0787 58.9922C57.6188 58.9265 47.3039 56.5613 39.3541 48.6115C31.4044 40.6618 29.0392 30.3469 28.9735 29.887ZM56.8304 57.0869L57.1589 57.1526L57.0932 56.8241C56.1734 53.8676 53.4797 46.312 47.5667 40.399C41.6536 34.486 34.0981 31.7923 31.1416 30.8725L30.8131 30.8068L30.8788 31.1353C31.7986 34.0918 34.4923 41.6473 40.4053 47.5603C46.3184 53.4077 53.8739 56.1671 56.8304 57.0869Z" fill="#B49A5D"/>
<path d="M29.1694 29.2297C29.4322 28.9669 29.9578 28.9669 30.2206 29.2297L58.6688 57.678C58.8002 57.8094 58.8659 58.0065 58.8659 58.2036C58.8659 58.4007 58.8002 58.5978 58.6688 58.7292C58.5374 58.8606 58.3403 58.9263 58.1432 58.9263C57.9461 58.9263 57.749 58.8606 57.6176 58.7292L29.1694 30.2809C28.9066 29.9524 28.9066 29.4925 29.1694 29.2297Z" fill="#B49A5D"/>
<path d="M0.0672401 1.04468C0.00153986 0.781876 0.0672401 0.519075 0.264341 0.321974C0.461442 0.124872 0.724243 0.0591755 0.987044 0.124876C1.44695 0.190577 11.7619 2.55578 19.7116 10.5055C27.5957 18.3896 29.9609 28.7702 30.0923 29.2301C30.158 29.4929 30.0923 29.7557 29.8952 29.9528C29.7638 30.0842 29.5667 30.1499 29.3696 30.1499C29.3039 30.1499 29.2382 30.1499 29.2382 30.1499C28.7783 30.0842 18.4633 27.719 10.5136 19.7693C2.49815 11.8195 0.198641 1.43888 0.0672401 1.04468ZM27.9242 28.1789L28.2527 28.2446L28.187 27.9161C27.2672 24.9596 24.5734 17.404 18.6604 11.491C12.7474 5.578 5.19186 2.88428 2.23535 1.96448L1.90685 1.89878L1.97255 2.22728C2.89235 5.1838 5.58606 12.7393 11.4991 18.6524C17.4121 24.5654 24.9676 27.2591 27.9242 28.1789Z" fill="#B49A5D"/>
<path d="M0.263141 0.322025C0.525942 0.0592232 1.05154 0.0592232 1.31435 0.322025L29.7626 28.7702C30.0911 29.0987 30.0911 29.5587 29.7626 29.8215C29.6312 29.9529 29.4341 30.0186 29.237 30.0186C29.0399 30.0186 28.8428 29.9529 28.7114 29.8215L0.263141 1.37323C0.000339754 1.11043 0.000339754 0.584826 0.263141 0.322025Z" fill="#B49A5D"/>
<path d="M10.4482 39.3476C18.3979 31.3978 28.7128 29.0983 29.1727 28.9669C29.4355 28.9012 29.6983 28.9669 29.8954 29.164C30.0925 29.3611 30.1582 29.6239 30.0925 29.8867C30.0268 30.3466 27.6616 40.6616 19.7119 48.6113C11.7622 56.5611 1.44721 58.8606 0.98731 58.9263C0.921609 58.9263 0.855909 58.9263 0.855909 58.9263C0.658808 58.9263 0.461707 58.8606 0.330307 58.7292C0.133206 58.5978 0.00180534 58.335 0.0675056 58.0722C0.198906 57.6123 2.49842 47.2316 10.4482 39.3476ZM2.16991 57.0867C5.12643 56.1669 12.682 53.4731 18.595 47.5601C24.508 41.6471 27.2017 34.0916 28.1215 31.135L28.1872 30.8065L27.8587 30.8722C24.9022 31.792 17.3467 34.4858 11.4337 40.3988C5.52063 46.3118 2.82692 53.8673 1.90711 56.8239L1.84141 57.1524L2.16991 57.0867Z" fill="#B49A5D"/>
<path d="M0.06604 58.2036C0.06604 58.0065 0.13174 57.8094 0.263141 57.678L28.7114 29.2297C28.9742 28.9669 29.4998 28.9669 29.7626 29.2297C30.0911 29.4925 30.0911 30.0181 29.7626 30.2809L1.38005 58.7292C1.24865 58.8606 1.05154 58.9263 0.854443 58.9263C0.657343 58.9263 0.460242 58.8606 0.328841 58.7292C0.13174 58.5978 0.06604 58.4007 0.06604 58.2036Z" fill="#B49A5D"/>
<path d="M39.2884 10.4396C47.2382 2.55556 57.5531 0.190351 58.013 0.0589504C58.2758 -0.00675011 58.5386 0.0589523 58.7357 0.256054C58.9328 0.453154 58.9985 0.715954 58.9328 0.978756C58.8671 1.43866 56.5019 11.7536 48.5522 19.7033C40.6024 27.6531 30.2875 29.9526 29.8933 30.084C29.8276 30.084 29.7619 30.084 29.6962 30.084C29.4991 30.084 29.302 30.0183 29.1706 29.8869C28.9735 29.6898 28.9078 29.427 28.9735 29.1642C29.0392 28.7043 31.4044 18.3893 39.2884 10.4396ZM31.0759 28.1787C34.0324 27.2589 41.5879 24.5652 47.501 18.6521C53.414 12.7391 56.1077 5.18357 57.0275 2.22706L57.0932 1.89856L56.7647 1.96426C53.8082 2.88406 46.2527 5.57778 40.3396 11.4908C34.4266 17.4038 31.7329 24.9594 30.8131 27.9159L30.7474 28.2444L31.0759 28.1787Z" fill="#B49A5D"/>
<path d="M58.7345 1.37296L30.2206 29.8869C30.0892 30.0183 29.8921 30.084 29.695 30.084C29.4979 30.084 29.3008 30.0183 29.1694 29.8869C28.9066 29.5584 28.9066 29.0985 29.1694 28.8357L57.6176 0.387455C57.8804 0.124653 58.406 0.124653 58.6688 0.387455C58.9973 0.584555 58.9973 1.11016 58.7345 1.37296Z" fill="#B49A5D"/>
<path d="M54.0682 29.2298C54.3967 29.5583 54.3967 30.0182 54.0682 30.281L48.6807 35.6027C48.5493 35.7341 48.3522 35.7998 48.1551 35.7998C47.958 35.7998 47.7609 35.7341 47.6295 35.6027L42.2421 30.2153C41.9136 29.8868 41.9136 29.4269 42.2421 29.1641L47.6295 23.7767C47.8923 23.5139 48.4179 23.5139 48.6807 23.7767L54.0682 29.2298ZM43.8846 29.7554L48.1551 34.0259L52.4256 29.7554L48.1551 25.4849L43.8846 29.7554Z" fill="#20201E"/>
<path d="M17.74 30.2812L12.3526 35.6686C12.2212 35.8 12.0241 35.8657 11.827 35.8657C11.6299 35.8657 11.4328 35.8 11.3014 35.6686L5.91398 30.2812C5.58548 29.9527 5.58548 29.4928 5.91398 29.23L11.3014 23.8426C11.5642 23.5798 12.0898 23.5798 12.3526 23.8426L17.74 29.23C18.0028 29.4928 18.0028 29.9527 17.74 30.2812ZM11.827 25.4851L7.55649 29.7556L11.827 34.0261L16.0975 29.7556L11.827 25.4851Z" fill="#20201E"/>
<path d="M24.1146 48.4143C23.9832 48.2829 23.9175 48.0858 23.9175 47.8887C23.9175 47.6916 23.9832 47.4945 24.1146 47.3631L29.502 41.9756C29.7648 41.7128 30.2904 41.7128 30.5532 41.9756L35.9406 47.3631C36.072 47.4945 36.1377 47.6916 36.1377 47.8887C36.1377 48.0858 36.072 48.2829 35.9406 48.4143L30.5532 53.8017C30.4218 53.9331 30.2247 53.9988 30.0276 53.9988C29.8305 53.9988 29.6334 53.9331 29.502 53.8017L24.1146 48.4143ZM34.2981 47.8887L30.0276 43.6181L25.6914 47.8887L29.9619 52.1592L34.2981 47.8887Z" fill="#20201E"/>
<path d="M24.1146 12.0825C23.9832 11.9511 23.9175 11.754 23.9175 11.5569C23.9175 11.3598 23.9832 11.1627 24.1146 11.0313L29.502 5.64384C29.7648 5.38104 30.2904 5.38104 30.5532 5.64384L35.9406 11.0313C36.072 11.1627 36.1377 11.3598 36.1377 11.5569C36.1377 11.754 36.072 11.9511 35.9406 12.0825L30.5532 17.4699C30.4218 17.6013 30.2247 17.667 30.0276 17.667C29.8305 17.667 29.6334 17.6013 29.502 17.4699L24.1146 12.0825ZM34.2981 11.5569L30.0276 7.28634L25.7571 11.5569L30.0276 15.8274L34.2981 11.5569Z" fill="#20201E"/>
</svg>
