<svg width="73" height="72" viewBox="0 0 73 72" fill="none" xmlns="http://www.w3.org/2000/svg">
<path d="M71.3541 37.088L65.9991 31.716L64.8941 30.611H54.0481V0.674037C54.0481 0.368037 53.7931 0.113037 53.4871 0.113037H0.600062C0.277062 0.113037 0.0390625 0.368037 0.0390625 0.674037V59.715C0.0390625 66.43 5.49606 71.887 12.1941 71.887H62.7011C68.0901 71.887 72.4591 67.501 72.4591 62.112V38.193L71.3541 37.088ZM12.1941 70.765C6.10806 70.765 1.14406 65.818 1.14406 59.715V1.23504H52.9261V62.112C52.9261 65.869 55.0681 69.133 58.1791 70.765H12.1941ZM71.3541 62.112C71.3541 66.889 67.4611 70.765 62.7011 70.765C57.9411 70.765 54.0481 66.889 54.0481 62.112V31.716H64.3331L71.3541 38.754V62.112Z"/>
<path d="M21.1191 5.57004H5.39406C5.07106 5.57004 4.83306 5.80804 4.83306 6.11404V28.656C4.83306 28.962 5.07106 29.217 5.39406 29.217H21.1191C21.4251 29.217 21.6801 28.962 21.6801 28.656V6.11404C21.6801 5.80804 21.4251 5.57004 21.1191 5.57004ZM20.5581 28.112H5.93806V6.67504H20.5581V28.112Z"/>
<path d="M48.6931 5.57004H26.7121C26.4061 5.57004 26.1511 5.82504 26.1511 6.13104C26.1511 6.43704 26.4061 6.69204 26.7121 6.69204H48.6931C48.9991 6.69204 49.2541 6.43704 49.2541 6.13104C49.2541 5.82504 48.9991 5.57004 48.6931 5.57004Z"/>
<path d="M48.6931 16.841H26.7121C26.4061 16.841 26.1511 17.096 26.1511 17.402C26.1511 17.708 26.4061 17.963 26.7121 17.963H48.6931C48.9991 17.963 49.2541 17.708 49.2541 17.402C49.2541 17.096 48.9991 16.841 48.6931 16.841Z"/>
<path d="M48.6931 28.112H26.7121C26.4061 28.112 26.1511 28.367 26.1511 28.673C26.1511 28.979 26.4061 29.234 26.7121 29.234H48.6931C48.9991 29.234 49.2541 28.979 49.2541 28.673C49.2541 28.367 48.9991 28.112 48.6931 28.112Z"/>
<path d="M48.6931 39.366H7.16206C6.85606 39.366 6.60106 39.621 6.60106 39.927C6.60106 40.233 6.85606 40.488 7.16206 40.488H48.6931C48.9991 40.488 49.2541 40.233 49.2541 39.927C49.2541 39.621 48.9991 39.366 48.6931 39.366Z"/>
<path d="M48.6931 50.637H7.16206C6.85606 50.637 6.60106 50.892 6.60106 51.198C6.60106 51.504 6.85606 51.759 7.16206 51.759H48.6931C48.9991 51.759 49.2541 51.504 49.2541 51.198C49.2541 50.892 48.9991 50.637 48.6931 50.637Z"/>
<path d="M48.6931 61.908H7.16206C6.85606 61.908 6.60106 62.163 6.60106 62.469C6.60106 62.775 6.85606 63.03 7.16206 63.03H48.6931C48.9991 63.03 49.2541 62.775 49.2541 62.469C49.2541 62.163 48.9991 61.908 48.6931 61.908Z"/>
</svg>
