<svg width="36" height="66" viewBox="0 0 36 66" fill="none" xmlns="http://www.w3.org/2000/svg">
<path d="M34.9545 64.2875C32.342 58.4125 30.167 52.9875 28.3795 47.9875H28.442C28.567 47.9875 28.6795 47.9375 28.7795 47.875L30.4545 46.6375C30.592 46.525 30.6795 46.3625 30.6795 46.1875V43.4375C30.6795 43.25 30.592 43.075 30.442 42.975L28.6545 41.7375C28.5545 41.6625 28.442 41.6375 28.3295 41.6375H26.217C25.5295 39.5 24.917 37.45 24.3795 35.5H24.4545C24.5795 35.5 24.692 35.4625 24.792 35.3875L26.467 34.15C26.6045 34.05 26.692 33.875 26.692 33.7V30.95C26.692 30.7625 26.6045 30.5875 26.4545 30.4875L24.667 29.25C24.567 29.1875 24.467 29.15 24.342 29.15H22.7545C20.242 18.2625 19.942 10.7375 20.167 6.2625C20.1795 6.25 20.192 6.25 20.2045 6.2375L21.8795 5C22.017 4.9 22.1045 4.725 22.1045 4.55V1.8C22.1045 1.6125 22.017 1.4375 21.867 1.3375L20.0795 0.1C19.9795 0.0375 19.867 0 19.7545 0H15.017C14.892 0 14.7795 0.0375 14.6795 0.1125L13.0795 1.35C12.942 1.4625 12.867 1.625 12.867 1.8V4.55C12.867 4.7375 12.967 4.925 13.1295 5.025L14.842 6.1125C15.067 10.5625 14.792 18.1375 12.2545 29.15H10.4295C10.3045 29.15 10.1795 29.1875 10.092 29.2625L8.49197 30.5C8.35447 30.6125 8.27947 30.775 8.27947 30.95V33.7C8.27947 33.8875 8.37947 34.075 8.54197 34.175L10.492 35.4125C10.492 35.4125 10.592 35.4625 10.642 35.475C10.092 37.4375 9.47947 39.4875 8.79197 41.6375H6.44197C6.31697 41.6375 6.20447 41.675 6.10447 41.75L4.50447 42.9875C4.36697 43.1 4.29197 43.2625 4.29197 43.4375V46.1875C4.29197 46.375 4.39197 46.55 4.55447 46.65L6.50447 47.9C6.50447 47.9 6.59197 47.9375 6.64197 47.9625C4.85447 52.9625 2.67947 58.4 0.054471 64.2875C-0.033029 64.4625 -0.00802898 64.6625 0.091971 64.825C0.191971 64.975 0.366971 65.075 0.566971 65.075H7.36697C7.65447 65.075 7.87947 64.875 7.92947 64.6C7.92947 64.5 9.69197 54.4875 17.5045 54.075C25.317 54.4875 27.067 64.5 27.0795 64.6C27.1295 64.875 27.3545 65.075 27.642 65.075H34.442C34.642 65.075 34.817 64.975 34.917 64.825C35.017 64.6625 35.042 64.4625 34.9545 64.2875ZM14.7545 4.725L13.992 4.2375V2.075L14.3545 1.7875L15.092 1.2125L15.217 1.125H19.5795L19.8545 1.3125L20.642 1.8625L20.9795 2.1V4.2625L20.2545 4.8L19.6795 5.225H15.542L14.7545 4.725ZM16.0295 6.35H18.9795C18.742 10.9 19.0545 18.3625 21.542 29.15H13.467C15.9545 18.3625 16.267 10.9 16.0295 6.35V6.35ZM9.40447 33.3875V31.225L10.6295 30.275H24.167L25.567 31.2375V33.4125L24.267 34.375H10.942L9.40447 33.3875V33.3875ZM11.842 35.5H23.167C23.7045 37.45 24.317 39.5 25.0045 41.6375H10.0045C10.692 39.5 11.3045 37.45 11.842 35.5V35.5ZM6.96697 46.8625L5.41697 45.875V43.7125L6.64197 42.7625H28.1545L29.5545 43.725V45.9L28.2545 46.8625H6.96697V46.8625ZM28.092 63.95C27.6295 61.9 25.3795 53.8375 18.242 53.0125C18.167 52.9625 18.0795 52.9375 17.992 52.9375C17.8295 52.9375 17.667 52.9375 17.5045 52.9375C17.342 52.9375 17.1795 52.9375 17.017 52.9375C16.9295 52.9375 16.842 52.9625 16.767 53.0125C9.62947 53.8375 7.37947 61.9 6.91697 63.95H1.42947C3.96697 58.2 6.09197 52.8875 7.84197 47.9875H27.167C28.917 52.8875 31.042 58.2 33.5795 63.95H28.092V63.95Z" fill="#BF9C5A"/>
</svg>
