<svg width="16" height="16" viewBox="0 0 16 16" fill="none" xmlns="http://www.w3.org/2000/svg">
<g clip-path="url(#clip0_412_25367)">
<path d="M13.5591 -0.000976562H2.44764C1.79888 -0.000976839 1.17665 0.256589 0.717696 0.715124C0.258739 1.17366 0.000598491 1.79565 0 2.44441L0 13.5559C0.000896035 14.2039 0.258703 14.8251 0.716896 15.2833C1.17509 15.7415 1.79627 15.9993 2.44426 16.0002H13.5591C14.2071 15.9993 14.8283 15.7415 15.2865 15.2833C15.7447 14.8251 16.0025 14.2039 16.0034 13.5559V2.44441C16.0028 1.79623 15.7451 1.17476 15.2869 0.71632C14.8287 0.257882 14.2073 -7.99118e-05 13.5591 -0.000976562V-0.000976562ZM5.33672 12.4439C5.33687 12.5023 5.32546 12.5602 5.30316 12.6143C5.28086 12.6683 5.2481 12.7174 5.20677 12.7587C5.16543 12.8001 5.11634 12.8328 5.0623 12.8551C5.00827 12.8774 4.95036 12.8888 4.8919 12.8887H3.55857C3.5002 12.8887 3.44242 12.8772 3.38851 12.8548C3.33461 12.8324 3.28564 12.7996 3.24443 12.7583C3.20321 12.717 3.17055 12.668 3.14832 12.614C3.12609 12.56 3.11473 12.5022 3.11487 12.4439V6.66683C3.11473 6.60846 3.12609 6.55065 3.14832 6.49668C3.17055 6.44272 3.20321 6.39368 3.24443 6.35236C3.28564 6.31104 3.33461 6.27825 3.38851 6.25589C3.44242 6.23352 3.5002 6.222 3.55857 6.222H4.8919C4.95036 6.22185 5.00827 6.23326 5.0623 6.25556C5.11634 6.27786 5.16543 6.31062 5.20677 6.35196C5.2481 6.39329 5.28086 6.44239 5.30316 6.49642C5.32546 6.55046 5.33687 6.60837 5.33672 6.66683V12.4439ZM4.2258 5.33123C4.00576 5.33146 3.7906 5.2664 3.60755 5.14429C3.4245 5.02218 3.28179 4.84851 3.19748 4.64527C3.11317 4.44202 3.09106 4.21833 3.13393 4.00251C3.1768 3.78668 3.28274 3.58843 3.43833 3.43284C3.59392 3.27725 3.79217 3.17131 4.00799 3.12844C4.22382 3.08557 4.44751 3.10768 4.65075 3.19199C4.854 3.2763 5.02767 3.41901 5.14978 3.60206C5.27188 3.78511 5.33694 4.00027 5.33672 4.22031C5.33702 4.36639 5.3085 4.51109 5.2528 4.64613C5.19711 4.78118 5.11533 4.90391 5.01214 5.00731C4.90895 5.11071 4.78638 5.19274 4.65145 5.24871C4.51652 5.30468 4.37188 5.33349 4.2258 5.33349V5.33123ZM12.8919 12.4439C12.892 12.5022 12.8807 12.56 12.8584 12.614C12.8362 12.668 12.8036 12.717 12.7623 12.7583C12.7211 12.7996 12.6722 12.8324 12.6183 12.8548C12.5644 12.8772 12.5066 12.8887 12.4482 12.8887H11.1149C11.0564 12.8888 10.9985 12.8774 10.9445 12.8551C10.8904 12.8328 10.8413 12.8001 10.8 12.7587C10.7587 12.7174 10.7259 12.6683 10.7036 12.6143C10.6813 12.5602 10.6699 12.5023 10.6701 12.4439V9.11108C10.6701 8.81645 10.553 8.53388 10.3447 8.32554C10.1363 8.1172 9.85376 8.00016 9.55913 8.00016C9.26449 8.00016 8.98193 8.1172 8.77359 8.32554C8.56525 8.53388 8.44821 8.81645 8.44821 9.11108V12.4439C8.44836 12.5023 8.43695 12.5602 8.41465 12.6143C8.39235 12.6683 8.35959 12.7174 8.31825 12.7587C8.27692 12.8001 8.22782 12.8328 8.17379 12.8551C8.11975 12.8774 8.06184 12.8888 8.00339 12.8887H6.67005C6.6116 12.8888 6.55369 12.8774 6.49965 12.8551C6.44562 12.8328 6.39652 12.8001 6.35519 12.7587C6.31385 12.7174 6.28109 12.6683 6.25879 12.6143C6.23649 12.5602 6.22508 12.5023 6.22523 12.4439V6.66683C6.22508 6.60837 6.23649 6.55046 6.25879 6.49642C6.28109 6.44239 6.31385 6.39329 6.35519 6.35196C6.39652 6.31062 6.44562 6.27786 6.49965 6.25556C6.55369 6.23326 6.6116 6.22185 6.67005 6.222H8.00339C8.06184 6.22185 8.11975 6.23326 8.17379 6.25556C8.22782 6.27786 8.27692 6.31062 8.31825 6.35196C8.35959 6.39329 8.39235 6.44239 8.41465 6.49642C8.43695 6.55046 8.44836 6.60837 8.44821 6.66683V6.9073C8.83069 6.56218 9.30512 6.3355 9.81393 6.25477C10.3227 6.17405 10.844 6.24276 11.3145 6.45255C11.7851 6.66235 12.1846 7.00421 12.4646 7.43665C12.7446 7.86909 12.893 8.3735 12.8919 8.88867V12.4439Z" fill="black"/>
</g>
<rect x="0.5" y="0.5" width="15" height="15" stroke="black"/>
<defs>
<clipPath id="clip0_412_25367">
<rect width="16" height="16" fill="white"/>
</clipPath>
</defs>
</svg>
