<svg width="56" height="54" viewBox="0 0 56 54" fill="none" xmlns="http://www.w3.org/2000/svg">
<path d="M28 53.6997C27.832 53.6997 27.664 53.6297 27.552 53.5037L0.182 25.8397C0.0700002 25.7137 0 25.5597 0 25.3917V9.27772C0 9.10972 0.0700002 8.94172 0.182 8.82972L8.344 0.667718C8.47 0.541718 8.624 0.485718 8.792 0.485718H18.704C18.872 0.485718 19.04 0.555718 19.152 0.667718L27.986 9.50172L36.82 0.667718C36.946 0.541718 37.1 0.485718 37.268 0.485718H47.18C47.348 0.485718 47.516 0.555718 47.628 0.667718L55.79 8.82972C55.916 8.95572 55.972 9.10972 55.972 9.27772V25.3917C55.972 25.5597 55.902 25.7277 55.79 25.8397L28.434 53.5177C28.308 53.6437 28.154 53.7137 27.986 53.7137L28 53.6997ZM1.274 25.1257L28 52.1457L54.726 25.1257V9.54372L46.928 1.74572H37.548L28.448 10.8457C28.21 11.0837 27.776 11.0837 27.538 10.8457L18.438 1.74572H9.058L1.26 9.54372V25.1257H1.274Z" fill="#B49A5D"/>
</svg>
