<svg width="23" height="31" viewBox="0 0 23 31" fill="none" xmlns="http://www.w3.org/2000/svg">
<path d="M20.3368 7.13792L11.0251 0.083252V21.4261C9.93359 19.9091 8.15759 18.9101 6.15343 18.9101C2.84193 18.9101 0.147095 21.6049 0.147095 24.9164C0.147095 28.2279 2.84193 30.9228 6.15343 30.9228C9.46493 30.9228 12.1598 28.2279 12.1598 24.9164V8.34042L18.9061 13.4464C19.7571 14.1494 20.3861 15.0806 20.7253 16.1351L21.0891 17.2636L21.7304 16.2646C23.6483 13.3046 23.0439 9.38259 20.3368 7.13175V7.13792ZM6.15343 29.7881C3.46476 29.7881 1.28176 27.5989 1.28176 24.9164C1.28176 22.2339 3.47093 20.0448 6.15343 20.0448C8.83593 20.0448 11.0251 22.2339 11.0251 24.9164C11.0251 27.5989 8.83593 29.7881 6.15343 29.7881ZM21.3049 14.6366C20.8856 13.8473 20.3059 13.1443 19.6029 12.5584L12.1598 6.91592V2.35259L19.6276 8.01359C21.5948 9.65392 22.2299 12.3426 21.3111 14.6428L21.3049 14.6366Z" fill="#B49A5D"/>
</svg>
