<svg width="19" height="15" viewBox="0 0 19 15" fill="none" xmlns="http://www.w3.org/2000/svg">
<path d="M18.4062 2.06348C17.7381 2.35381 17.0311 2.54508 16.3077 2.63126C17.068 2.18608 17.6397 1.47885 17.9157 0.642194C17.1969 1.06249 16.4118 1.35739 15.5941 1.51426C15.2498 1.15339 14.8356 0.866299 14.3769 0.670451C13.9181 0.474602 13.4244 0.374084 12.9256 0.375006C10.9061 0.375006 9.27178 1.98555 9.27178 3.9709C9.27035 4.24706 9.30199 4.52239 9.36604 4.79102C7.91791 4.72313 6.4999 4.35372 5.20273 3.70641C3.90555 3.0591 2.75778 2.14815 1.83283 1.03184C1.50834 1.57888 1.33673 2.20303 1.33594 2.83907C1.33594 4.08594 1.98646 5.18809 2.96875 5.83379C2.38677 5.81998 1.81672 5.66595 1.30699 5.38477V5.4293C1.30699 7.17344 2.56871 8.62442 4.23863 8.95469C3.92461 9.0384 3.60101 9.08082 3.27602 9.08086C3.04541 9.08127 2.81533 9.05889 2.58912 9.01407C3.05336 10.4428 4.40451 11.4818 6.00504 11.5115C4.7045 12.5138 3.10777 13.0556 1.46582 13.0516C1.17437 13.0511 0.88319 13.0338 0.59375 12.9996C2.26411 14.0662 4.20577 14.6304 6.18762 14.625C12.9178 14.625 16.5946 9.14395 16.5946 4.39024C16.5946 4.23438 16.5905 4.07852 16.5831 3.92637C17.2967 3.41874 17.9141 2.7879 18.4062 2.06348Z" fill="black"/>
</svg>
