<svg width="31" height="19" viewBox="0 0 31 19" fill="none" xmlns="http://www.w3.org/2000/svg">
<path d="M0.429077 3.80642C1.9367 3.80642 3.48506 3.80642 4.99269 3.80642C5.07418 3.80642 5.19642 3.76514 5.27791 3.72385C7.80419 2.11364 10.575 1.2879 13.5495 1.08146C16.4832 0.833738 19.4169 1.12275 22.1877 2.19622C23.2064 2.60909 24.1843 3.14583 25.1622 3.64127C25.3659 3.72385 25.6104 3.80642 25.8141 3.80642C27.1588 3.80642 28.5034 3.80642 29.8481 3.80642C30.011 3.80642 30.2148 3.80642 30.4185 3.80642C30.337 3.97157 30.2555 4.05415 30.2148 4.13672C29.7258 4.87989 29.3183 5.66435 29.0331 6.4901C28.9516 6.73782 28.9924 6.90297 29.1146 7.10941C29.9703 8.4306 30.4592 9.87566 30.4185 11.4859C30.4592 15.4082 27.4033 18.7111 23.5323 18.9589C21.0876 19.124 19.0502 18.257 17.3796 16.4403C17.2981 16.3578 17.2166 16.2339 17.0536 16.11C16.5239 16.9358 15.9942 17.7202 15.4645 18.546C14.9348 17.7202 14.4051 16.9358 13.8754 16.1513C13.7939 16.2752 13.7124 16.3578 13.6309 16.4403C11.4306 18.7111 8.82286 19.5369 5.84836 18.6286C2.87387 17.7615 1.12177 15.6559 0.551317 12.5593C0.51057 12.3942 0.469824 12.1877 0.429077 12.0226C0.429077 11.6097 0.429077 11.1969 0.429077 10.784C0.429077 10.7427 0.469824 10.7014 0.469824 10.6601C0.592063 9.33892 1.04027 8.14159 1.77371 7.02683C1.8552 6.90297 1.8552 6.69654 1.81446 6.57267C1.56998 5.99465 1.3255 5.37534 1.04027 4.79732C0.877289 4.46702 0.63281 4.2193 0.429077 3.889C0.429077 3.889 0.429077 3.84771 0.429077 3.80642ZM22.9619 17.4725C26.2624 17.4725 28.9516 14.7476 28.9516 11.362C28.9516 7.97644 26.3031 5.29277 22.9619 5.29277C19.6207 5.29277 16.9314 8.01773 16.9314 11.362C16.9722 14.7063 19.6614 17.4725 22.9619 17.4725ZM13.9569 11.362C13.9569 7.97644 11.3084 5.29277 7.92643 5.29277C4.66671 5.29277 1.97744 8.01773 1.97744 11.362C1.97744 14.7063 4.66671 17.4312 8.00793 17.4312C11.2676 17.4312 13.9569 14.7063 13.9569 11.362ZM15.4645 10.1234C16.361 6.36624 18.6835 4.26058 22.5137 3.72385C20.2319 2.73295 17.8686 2.32008 15.4238 2.32008C13.0197 2.32008 10.6565 2.69167 8.41539 3.68256C10.1675 3.84771 11.7159 4.50831 13.0197 5.70564C14.3236 6.86168 15.0978 8.34803 15.4645 10.1234Z" fill="black"/>
<path d="M22.9183 7.52246C24.9963 7.52246 26.6669 9.21524 26.6669 11.2796C26.6669 13.3853 24.9963 15.0367 22.9183 15.0367C20.8809 15.0367 19.2103 13.344 19.2103 11.2383C19.2103 9.17395 20.8809 7.52246 22.9183 7.52246ZM22.959 13.7156C24.3036 13.7156 25.4038 12.6008 25.363 11.2383C25.363 9.87584 24.2629 8.80237 22.959 8.80237C21.6144 8.80237 20.5142 9.91712 20.5142 11.2796C20.5142 12.6421 21.6144 13.7156 22.959 13.7156Z" fill="black"/>
<path d="M7.84699 7.52246C9.92506 7.52246 11.5957 9.17395 11.5957 11.2796C11.5957 13.344 9.92506 15.0367 7.88774 15.0367C5.85041 15.0367 4.17981 13.344 4.17981 11.2796C4.13906 9.21524 5.80967 7.52246 7.84699 7.52246ZM7.88774 8.80237C6.58385 8.76108 5.4837 9.87584 5.44295 11.197C5.4022 12.5182 6.50236 13.6743 7.80625 13.7156C9.15088 13.7568 10.2918 12.6834 10.3325 11.3622C10.3325 9.95841 9.27312 8.84365 7.88774 8.80237Z" fill="black"/>
<path d="M24.1864 11.2791C24.1864 10.5773 23.6567 10.0405 22.964 10.0405C22.2713 10.0405 21.7416 10.5773 21.7416 11.2791C21.7416 11.981 22.312 12.5178 22.964 12.5178C23.6159 12.5178 24.1864 11.9397 24.1864 11.2791Z" fill="white"/>
<path d="M7.88753 10.041C7.15409 10.041 6.62439 10.5778 6.62439 11.2796C6.62439 11.9815 7.15409 12.5183 7.84679 12.5595C8.53948 12.5595 9.10993 12.0228 9.10993 11.3209C9.10993 10.5778 8.58022 10.041 7.88753 10.041Z" fill="white"/>
<path d="M24.1864 11.2796C24.1864 11.9815 23.6159 12.5183 22.964 12.5595C22.2713 12.5595 21.7416 11.9815 21.7416 11.3209C21.7416 10.619 22.2713 10.0823 22.964 10.0823C23.6159 10.041 24.1864 10.5778 24.1864 11.2796Z" fill="black"/>
<path d="M7.88753 10.0408C8.58022 10.0408 9.15067 10.6188 9.10993 11.3207C9.10993 12.0226 8.53948 12.5593 7.84679 12.5593C7.15409 12.5593 6.62439 11.9813 6.62439 11.2794C6.62439 10.5363 7.15409 9.99952 7.88753 10.0408Z" fill="black"/>
</svg>
