<svg width="33" height="34" viewBox="0 0 33 34" fill="none" xmlns="http://www.w3.org/2000/svg">
<path d="M29.757 14.6238H29.1963V12.7128C29.1963 11.3638 28.1122 10.3145 26.8037 10.3145C25.4579 10.3145 24.4112 11.4012 24.4112 12.7128V14.6238H18.4673V8.6283H20.3365C21.6822 8.6283 22.729 7.54161 22.729 6.23009C22.729 4.88109 21.6449 3.83188 20.3365 3.83188H18.4673V3.26979C18.4673 1.9208 17.3832 0.871582 16.0748 0.871582C14.729 0.871582 13.6822 1.95827 13.6822 3.26979V3.83188H11.8131C10.4673 3.83188 9.42056 4.91856 9.42056 6.23009C9.42056 7.57908 10.5047 8.6283 11.8131 8.6283H13.6822V14.6238H7.73832V12.7128C7.73832 11.3638 6.6542 10.3145 5.34579 10.3145C4.03738 10.3145 2.95327 11.4012 2.95327 12.7128V14.6238H2.39252C1.04673 14.6238 0 15.7105 0 17.022C0 18.371 1.08411 19.4203 2.39252 19.4203H2.95327V21.2939C2.95327 22.6429 4.03738 23.6921 5.34579 23.6921C6.69159 23.6921 7.73832 22.6054 7.73832 21.2939V19.4203H13.6075V25.4158H11.7383C10.3925 25.4158 9.3458 26.5025 9.3458 27.814C9.3458 29.1255 10.4299 30.2122 11.7383 30.2122H13.6075V30.7743C13.6075 32.1233 14.6916 33.1725 16 33.1725C17.3458 33.1725 18.3925 32.0858 18.3925 30.7743V30.2122H20.2617C21.6075 30.2122 22.6542 29.1255 22.6542 27.814C22.6542 26.5025 21.5701 25.4158 20.2617 25.4158H18.3925V19.4203H24.3365V21.2939C24.3365 22.6429 25.4206 23.6921 26.729 23.6921C28.0374 23.6921 29.1215 22.6054 29.1215 21.2939V19.4203H29.6822C31.028 19.4203 32.0748 18.3336 32.0748 17.022C32.1869 15.7105 31.1028 14.6238 29.757 14.6238Z" fill="white"/>
</svg>
