<svg width="24" height="24" viewBox="0 0 24 24" fill="none" xmlns="http://www.w3.org/2000/svg">
<path d="M21.2827 10.2827H20.884V8.93333C20.884 7.98267 20.1173 7.216 19.1667 7.216C18.216 7.216 17.4493 7.98267 17.4493 8.93333V10.2827H13.2173V6.05067H14.536C15.4867 6.05067 16.2533 5.284 16.2533 4.33333C16.2533 3.38267 15.4867 2.616 14.536 2.616H13.2173V2.21734C13.2173 1.26667 12.4507 0.5 11.5 0.5C10.5493 0.5 9.78266 1.26667 9.78266 2.21734V2.616H8.46399C7.51333 2.616 6.74667 3.38267 6.74667 4.33333C6.74667 5.284 7.51333 6.05067 8.46399 6.05067H9.78266V10.2827H5.55066V8.93333C5.55066 7.98267 4.784 7.216 3.83333 7.216C2.88267 7.216 2.11599 7.98267 2.11599 8.93333V10.2827H1.71733C0.766659 10.2827 0 11.0493 0 12C0 12.9507 0.766659 13.7173 1.71733 13.7173H2.11599V15.036C2.11599 15.9867 2.88267 16.7533 3.83333 16.7533C4.784 16.7533 5.55066 15.9867 5.55066 15.036V13.7173H9.84399V17.9493H8.52533C7.57466 17.9493 6.80799 18.716 6.80799 19.6667C6.80799 20.6173 7.57466 21.384 8.52533 21.384H9.84399V21.7827C9.84399 22.7333 10.6107 23.5 11.5613 23.5C12.512 23.5 13.2787 22.7333 13.2787 21.7827V21.384H14.5973C15.548 21.384 16.3147 20.6173 16.3147 19.6667C16.3147 18.716 15.548 17.9493 14.5973 17.9493H13.2787V13.7173H17.5107V15.036C17.5107 15.9867 18.2773 16.7533 19.228 16.7533C20.1787 16.7533 20.9453 15.9867 20.9453 15.036V13.7173H21.344C22.2947 13.7173 23.0613 12.9507 23.0613 12C23 11.0493 22.2333 10.2827 21.2827 10.2827Z" fill="#C20000"/>
</svg>
