<svg width="56" height="53" viewBox="0 0 56 53" fill="none" xmlns="http://www.w3.org/2000/svg">
<path d="M55.4679 6.70486H47.8799C47.8799 6.70486 47.7399 6.63486 47.7399 6.56486V3.10686C47.7399 1.41286 46.3679 0.0268555 44.6599 0.0268555C42.9519 0.0268555 41.5799 1.41286 41.5799 3.10686V6.56486C41.5799 6.56486 41.5239 6.70486 41.4399 6.70486H14.5599C14.4759 6.70486 14.4199 6.63486 14.4199 6.56486V3.10686C14.4199 1.41286 13.0339 0.0268555 11.3399 0.0268555C9.64589 0.0268555 8.25989 1.41286 8.25989 3.10686V6.56486C8.25989 6.56486 8.18989 6.70486 8.11989 6.70486H0.531892C0.321892 6.70486 0.139893 6.87286 0.139893 7.09686V48.4809L4.52189 52.8629H51.4779L55.8599 48.4809V7.09686C55.8599 6.87286 55.6779 6.70486 55.4679 6.70486V6.70486ZM42.3779 3.10686C42.3639 2.49086 42.5879 1.91686 43.0219 1.48286C43.4419 1.03486 44.0159 0.782855 44.6179 0.782855H44.6599C45.9059 0.782855 46.9279 1.79086 46.9559 3.10686V10.4989C46.9559 11.1149 46.7319 11.6889 46.3119 12.1369C45.8779 12.5709 45.3179 12.8229 44.6599 12.8369C43.4139 12.8369 42.3919 11.8289 42.3779 10.5129V3.10686V3.10686ZM9.04389 3.10686C9.04389 1.84686 10.0799 0.810855 11.3399 0.810855C12.5999 0.810855 13.6219 1.84686 13.6219 3.10686V10.5129C13.6219 11.7729 12.5999 12.7949 11.3399 12.7949C10.0799 12.7949 9.04389 11.7729 9.04389 10.5129V3.10686V3.10686ZM55.0619 48.1029L51.0859 52.0789H4.91389L0.937892 48.1029V18.3109C0.937892 18.3109 0.993893 18.1709 1.07789 18.1709H54.9219C55.0059 18.1709 55.0619 18.2409 55.0619 18.3109V48.1029ZM55.0619 17.2469C55.0619 17.2469 55.0059 17.3869 54.9219 17.3869H1.07789C0.993893 17.3869 0.937892 17.3169 0.937892 17.2469V7.62886C0.937892 7.62886 0.993893 7.48885 1.07789 7.48885H8.11989C8.11989 7.48885 8.25989 7.55886 8.25989 7.62886V10.5129C8.25989 12.2069 9.63189 13.5929 11.3399 13.5929C13.0479 13.5929 14.4199 12.2069 14.4199 10.5129V7.62886C14.4199 7.62886 14.4899 7.48885 14.5599 7.48885H41.4399C41.5239 7.48885 41.5799 7.55886 41.5799 7.62886V10.5129C41.5799 12.2069 42.9659 13.5929 44.6599 13.5929C46.3539 13.5929 47.7399 12.2069 47.7399 10.5129V7.62886C47.7399 7.62886 47.8099 7.48885 47.8799 7.48885H54.9219C55.0059 7.48885 55.0619 7.55886 55.0619 7.62886V17.2469V17.2469Z" fill="#B49A5D"/>
</svg>
