<svg width="64" height="61" viewBox="0 0 64 61" fill="none" xmlns="http://www.w3.org/2000/svg">
<path d="M63.4178 0.736816C63.2498 0.736816 62.9978 0.820816 62.7318 0.960816C56.3898 4.22282 50.0478 7.51282 43.7618 10.7888C43.4398 10.9708 43.1458 11.0548 42.8378 11.0548C42.5298 11.0548 42.2358 10.9708 41.9418 10.8028L23.0838 1.01682C22.7758 0.876816 22.5238 0.806817 22.2858 0.806817C22.1178 0.806817 21.9218 0.848817 21.7258 0.918817C14.4178 3.32682 7.62785 5.53882 0.977848 7.66682C0.613848 7.79282 0.361848 7.94682 0.193848 8.14282V52.9568L3.98785 57.3948L4.61785 58.1368L5.69585 57.7868L6.11585 57.6468C11.2258 55.9948 16.3358 54.3148 21.4738 52.6348C21.7398 52.5508 21.9918 52.5088 22.2438 52.5088C22.5518 52.5088 22.8598 52.5648 23.2098 52.7048L27.5918 54.4688C32.4498 56.4288 37.3218 58.3888 42.1938 60.3768C42.4178 60.4748 42.6278 60.5168 42.7958 60.5168C43.0058 60.5168 43.2018 60.4608 43.4538 60.3348C48.5218 57.6748 53.6039 55.0428 58.6859 52.4388C59.1479 52.1868 59.6098 51.9488 60.0718 51.7248L60.5198 50.4788L62.8158 44.1508L63.8098 41.4208V1.57682C63.8098 1.03082 63.6838 0.736816 63.4178 0.736816ZM19.4718 36.2828C19.5138 36.4648 19.6818 36.6048 19.8778 36.6048C20.1998 36.5768 20.5078 36.5348 20.8298 36.4928L21.8098 36.3528V51.5848L5.06585 57.0448L1.18785 52.5088V9.80882C1.18785 9.23482 1.29985 8.59082 2.22385 8.26882C8.24385 6.33682 14.2638 4.37682 20.3118 2.40282L20.4518 2.36082C20.6058 2.31882 20.7738 2.27682 20.9978 2.22082L21.8518 2.03882V3.13082C21.8658 3.31282 21.8658 3.49482 21.8518 3.62082C21.8658 8.68882 21.8658 13.7708 21.8658 18.8528C21.8658 23.9348 21.8658 29.0028 21.8798 34.0708C21.8798 34.9668 21.4458 35.4428 20.5498 35.5408C20.2698 35.5688 19.9898 35.6388 19.7378 35.7508C19.4158 35.8768 19.4438 36.1708 19.4718 36.2828ZM42.3198 38.3828L41.3258 38.2568C40.5138 38.1448 39.7298 38.0468 38.8198 37.9628C38.2738 37.9628 38.2738 38.2988 38.2738 38.4248C38.2738 38.5508 38.2738 38.7888 38.7358 38.8588C39.3378 38.9708 39.9258 39.0408 40.5418 39.1248C40.9198 39.1668 41.2978 39.2088 41.6898 39.2648L42.2918 39.3488V59.3828L41.1018 58.9628C40.9618 58.9068 40.8078 58.8508 40.6818 58.7948L35.6978 56.7788C31.7778 55.1968 27.8578 53.6008 23.9378 52.0468C23.2098 51.7808 22.8598 51.2908 22.8598 50.4928V36.1568L23.5178 36.1148C23.9098 36.0868 24.2458 36.0588 24.6378 36.0028C24.7638 35.9888 25.2118 35.9048 25.1978 35.5128C25.1838 35.1908 24.8478 35.0648 24.5258 35.0508C24.4698 35.0508 24.3998 35.0368 24.3298 35.0368C24.1338 35.0368 23.9378 35.0648 23.6858 35.0788L22.9298 35.1488V2.24882L23.8678 2.59882C24.1198 2.68282 24.3158 2.78082 24.5398 2.89282C30.1678 5.80482 35.8098 8.73082 41.3818 11.6708C41.7178 11.8528 42.3198 12.1748 42.3198 13.0708V38.3828ZM62.8158 41.0848L59.1338 51.1928C57.2438 52.1728 55.3398 53.1528 53.4498 54.1328C50.6498 55.5888 47.8358 57.0448 45.0218 58.4868L44.8258 58.5848C44.7138 58.6408 44.5738 58.7108 44.4058 58.7948L43.3698 59.3548V58.1788C43.3698 57.8988 43.3698 57.6608 43.4258 57.3948V51.7668C43.4258 47.9588 43.4258 44.1368 43.4258 40.3288C43.4258 39.7408 43.7618 39.2508 43.9018 39.0548C44.1118 38.7888 44.0978 38.5508 43.8318 38.2288C43.5378 37.8368 43.3978 37.4728 43.3978 37.1368C43.3698 29.0728 43.3698 21.0368 43.3978 13.0148C43.3978 12.5388 43.6778 11.9228 44.1258 11.7268C47.9338 9.73882 51.7698 7.75082 55.6058 5.76282L61.4158 2.75282C61.5698 2.65482 61.6818 2.59882 61.9058 2.52882L62.8158 2.23482V41.0848Z" fill="#B49A5D"/>
<path d="M34.3118 36.5628C32.8978 35.8488 31.3438 35.6388 29.6918 35.4148L29.4118 35.3868C29.2298 35.3868 29.0618 35.5548 29.0338 35.8068C28.9918 36.0588 29.1598 36.2548 29.4818 36.3248C29.8738 36.4088 30.2518 36.4788 30.6438 36.5488C31.2318 36.6608 31.8338 36.7728 32.4218 36.9128C32.8418 37.0108 33.2758 37.1648 33.7518 37.3328C33.8918 37.3888 34.0318 37.4308 34.1718 37.4868C34.1858 37.4868 34.1998 37.4588 34.2278 37.4448C34.3958 37.3328 34.5778 37.2068 34.6338 37.1368C34.6758 37.0668 34.6898 37.0108 34.6618 36.9408C34.6198 36.8008 34.4938 36.6748 34.3118 36.5768V36.5628Z" fill="#B49A5D"/>
<path d="M56.1518 16.0248C55.9138 16.0248 55.7318 16.2208 55.7318 16.4448C55.6758 17.9568 55.6478 19.4408 55.6198 21.0928C55.6198 21.4428 55.7878 21.6528 56.0958 21.6668H56.1099C56.4319 21.6668 56.5858 21.3448 56.5998 21.0368C56.6138 20.5748 56.5998 20.0988 56.5998 19.6368V18.9088L56.6558 18.2088C56.6558 18.2088 56.6558 18.1528 56.6558 18.1248C56.6558 17.4948 56.6839 16.8928 56.6139 16.2768C56.6139 16.1508 56.4038 16.0108 56.1518 16.0108V16.0248Z" fill="#B49A5D"/>
<path d="M55.4658 25.3768C55.3118 25.3768 55.1018 25.4608 55.0318 25.6848C54.5838 27.2108 54.1498 28.7648 53.7298 30.3328C53.6458 30.6268 53.9118 30.7668 54.0238 30.8088C54.0938 30.8368 54.1778 30.8508 54.2478 30.8508C54.3458 30.8508 54.5278 30.8228 54.5838 30.6688C55.0318 29.3808 55.4238 28.0788 55.8158 26.7628L56.0538 25.9648C55.9838 25.6428 55.8018 25.4468 55.4518 25.3768H55.4658Z" fill="#B49A5D"/>
<path d="M51.8818 34.0288C51.7418 34.0288 51.5878 34.0988 51.4478 34.2388C51.3218 34.3508 51.1958 34.4908 51.0838 34.6168C50.8738 34.8548 50.6638 35.0928 50.3978 35.2888C49.9358 35.6388 49.4598 35.9748 48.9698 36.3108C48.6478 36.5348 48.3118 36.7728 47.9758 37.0108C47.6538 37.2208 47.6678 37.3888 47.7238 37.5708C47.7518 37.6968 47.7938 37.8508 48.1998 37.9068L48.4238 37.8648C49.8798 37.1508 51.1258 36.1568 52.2318 34.8128C52.4278 34.5608 52.4278 34.3508 52.2178 34.1548C52.1198 34.0568 52.0078 34.0148 51.8818 34.0148V34.0288Z" fill="#B49A5D"/>
<path d="M15.8878 11.1948C15.0338 10.5368 13.9698 10.2008 12.8358 10.2008C10.5258 10.2008 8.43985 11.5868 7.76785 13.5748C7.29185 15.0308 7.37585 16.5008 8.00585 17.7328C8.64985 18.9648 9.81185 19.8888 11.2538 20.3368C11.9538 20.5048 12.3178 20.9948 12.2618 21.6808C12.2338 22.1988 12.2058 22.8568 12.2478 23.3748C12.3178 23.7388 12.3878 23.8648 12.3878 23.8648C12.4858 23.9208 12.6818 23.9908 12.8918 23.9908C12.9478 23.9908 13.0178 23.9768 13.0598 23.9628C13.2278 23.9348 13.2558 23.6828 13.2558 23.5008C13.2698 22.9828 13.2698 22.4788 13.2558 21.9748V21.2188L13.3118 20.7988L13.6198 20.5888L13.8858 20.4628L14.1378 20.3648C16.2798 19.7348 17.5678 18.3768 17.9598 16.3188C18.3378 14.2468 17.6658 12.5668 15.8878 11.1948ZM12.6818 19.5808C10.3718 19.5808 8.45385 17.6908 8.41185 15.3528C8.41185 13.0428 10.3718 11.0968 12.6958 11.0968H12.7518C15.1178 11.1388 17.0358 13.0428 17.0358 15.3528C17.0358 17.6628 15.1178 19.5808 12.6818 19.5808Z" fill="#B49A5D"/>
<path d="M12.6958 30.0388L13.2138 30.5988C13.5358 30.9488 13.7738 31.2428 13.9278 31.4668C14.1378 31.7048 14.3898 31.9428 14.6278 32.1528C14.7958 32.2928 14.9638 32.3768 15.1178 32.3768C15.2718 32.3768 15.3978 32.2928 15.4958 32.1528C15.6078 31.9708 15.6778 31.8028 15.3558 31.4808C15.0058 31.1168 14.6278 30.7948 14.2218 30.4448L13.2418 29.5908L14.0538 28.8348C14.5298 28.4008 14.9218 28.0228 15.2858 27.6728C15.4818 27.4628 15.5938 27.2668 15.5938 27.1128C15.5938 27.0568 15.5798 26.9728 15.4398 26.8468C15.2858 26.6928 15.1738 26.6928 15.1318 26.6928C14.9778 26.6928 14.7678 26.8048 14.5438 27.0008C14.0818 27.4208 13.6478 27.8688 13.2558 28.3028L12.9058 28.6668L12.4438 28.4428C12.3038 28.3728 12.1918 28.3028 12.1078 28.2328C11.8978 28.0368 11.0438 27.2248 10.8338 27.0148C10.6098 26.7908 10.3858 26.6648 10.2178 26.6648C10.1898 26.6648 10.0778 26.6648 9.90985 26.8328C9.79785 26.9448 9.78385 27.0288 9.76985 27.0848C9.76985 27.2528 9.88185 27.4628 10.0918 27.6588C10.4558 28.0088 10.8338 28.3448 11.2678 28.7228L12.1358 29.4788L11.5478 30.0108C11.1838 30.3328 10.9458 30.5428 10.7498 30.7108L10.0358 31.4108C9.82585 31.6068 9.64385 31.9148 9.88185 32.1668C9.99385 32.2788 10.1058 32.3348 10.2318 32.3348C10.3858 32.3348 10.5818 32.2368 10.7778 32.0408C11.1978 31.6488 11.6038 31.2148 12.0378 30.7248L12.6538 30.0528L12.6958 30.0388Z" fill="#B49A5D"/>
<path d="M9.55985 44.6268C9.48985 44.5988 9.41985 44.5848 9.34985 44.5848C9.08385 44.5848 8.92985 44.8508 8.87385 44.9768L8.70585 45.3548C8.52385 45.7608 8.35585 46.1528 8.21585 46.5868C7.90785 47.5388 7.62785 48.5188 7.43185 49.2468C7.45985 49.5408 7.54385 49.9608 7.83785 50.0028H7.90785C8.11785 50.0028 8.31385 49.8348 8.39785 49.5548C8.62185 48.8688 8.84585 48.1688 9.06985 47.4828C9.30785 46.7548 9.53185 46.0268 9.78385 45.2988C9.96585 44.7808 9.65785 44.6548 9.57385 44.6128L9.55985 44.6268Z" fill="#B49A5D"/>
<path d="M15.5518 37.4588C15.4538 37.4588 15.3278 37.5148 15.2158 37.5988L14.6138 38.0888C13.6198 38.9148 12.5838 39.7828 11.6458 40.6508C11.5198 40.7768 11.4498 40.9308 11.4498 41.0568C11.4498 41.1688 11.5058 41.2808 11.6318 41.3928C11.7438 41.5048 11.8278 41.5048 11.8838 41.5048C12.0378 41.5048 12.2338 41.4068 12.4438 41.2248L13.2558 40.5388C14.0818 39.8388 14.9078 39.1388 15.6918 38.4528C15.8038 38.3408 15.9158 38.1728 16.0558 37.9628C15.9158 37.7528 15.7898 37.5848 15.7058 37.5008C15.6498 37.4588 15.5938 37.4448 15.5378 37.4448L15.5518 37.4588Z" fill="#B49A5D"/>
</svg>
