<svg width="73" height="77" viewBox="0 0 73 77" fill="none" xmlns="http://www.w3.org/2000/svg">
<path d="M36.4874 59.541C36.2106 59.541 35.9338 59.4303 35.7124 59.2642L24.2526 49.7421C24.1419 49.6314 24.0311 49.4653 24.0311 49.2992C24.0311 49.1331 24.0865 48.967 24.2526 48.8563L35.7124 39.9985C36.1552 39.6663 36.7642 39.6663 37.2071 39.9985L48.1133 49.5207C48.224 49.6314 48.2794 49.7975 48.2794 49.9635C48.2794 50.1296 48.224 50.2957 48.0579 50.4064L37.1517 59.2642C36.9857 59.4303 36.7089 59.541 36.4874 59.541ZM25.5259 49.3546L36.4321 58.4338C36.4321 58.4338 36.4874 58.4338 36.5428 58.4338L46.8953 49.9635L36.4874 40.8843H36.4321L25.5259 49.3546Z" />
<path d="M0.553613 69.5061C0.498251 69.5061 0.38753 69.5061 0.332169 69.4507C0.110724 69.34 0 69.1739 0 68.9524L0.332169 29.5906C0.332169 29.3691 0.44289 29.2031 0.664336 29.0923C0.885781 28.9816 1.10722 29.037 1.27331 29.1477L25.0233 48.8563C25.134 48.967 25.2447 49.1331 25.2447 49.2992C25.2447 49.4653 25.1894 49.6314 25.0233 49.7421L0.941142 69.34C0.775058 69.4507 0.664335 69.5061 0.553613 69.5061ZM1.43939 30.8085L1.10723 67.7899L23.75 49.3546L1.43939 30.8085Z" />
<path d="M47.1701 9.882H25.3578C25.1363 9.882 24.9149 9.71591 24.8595 9.49446C24.8041 9.27302 24.8595 9.05155 25.0256 8.88547L35.655 0.249126C36.0978 -0.0830419 36.7068 -0.0830419 37.1497 0.249126L47.5576 8.88547C47.7237 9.05155 47.7791 9.27302 47.7237 9.49446C47.613 9.77127 47.3915 9.882 47.1701 9.882ZM26.9079 8.77477H45.62L36.43 1.13489C36.43 1.13489 36.3747 1.13489 36.3193 1.13489L26.9079 8.77477Z" />
<path d="M66.5442 76.2601H6.20046C6.03438 76.2601 5.92366 76.2048 5.81293 76.094L0.166083 70.0596C0.0553608 69.9489 0 69.8382 0 69.6721V68.9524C0 68.7863 0.0553621 68.6203 0.221446 68.5095L23.8053 49.2992L0.608975 30.0334C0.498253 29.9227 0.387529 29.7566 0.387529 29.5906V29.2584C0.387529 29.0923 0.442891 28.9262 0.608975 28.8155L11.183 20.1791V9.27297C11.183 8.94081 11.4044 8.71936 11.7366 8.71936H60.3991C60.5652 8.71936 60.6759 8.77471 60.7867 8.88544C60.8974 8.99616 60.9527 9.16225 60.9527 9.27297L60.7867 19.7916L72.3572 29.5906C72.4679 29.7013 72.5786 29.8674 72.5786 30.0334V69.7275C72.5786 69.8382 72.5233 70.0043 72.4125 70.115L66.9318 76.1494C66.821 76.2047 66.7103 76.2601 66.5442 76.2601ZM6.42191 75.1529H66.2674L70.9731 70.0043L47.7214 50.6832L37.2028 59.2642C36.7599 59.5964 36.1509 59.5964 35.708 59.2642L24.6358 50.0742L1.10723 69.2292V69.4507L6.42191 75.1529ZM48.6072 49.9635L71.4714 68.9524V31.3621L48.6072 49.9635ZM25.5215 49.3545L36.4277 58.4338C36.4277 58.4338 36.4831 58.4338 36.5384 58.4338L46.891 49.9635L36.4831 40.8843H36.4277L25.5215 49.3545ZM36.4277 39.7771C36.7045 39.7771 36.9813 39.8878 37.2028 40.0539L47.7214 49.2438L59.5687 39.6109V20.1238L59.7348 9.88197H12.2348V38.3376L24.6358 48.6349L35.708 40.0539C35.9295 39.8878 36.2063 39.7771 36.4277 39.7771ZM60.6759 21.2864V38.6698L71.2499 30.0334L60.6759 21.2864ZM1.55011 29.4798L11.1276 37.4519V21.6739L1.55011 29.4798Z" />
</svg>
