<svg width="47" height="76" viewBox="0 0 47 76" fill="none" xmlns="http://www.w3.org/2000/svg">
<path d="M46.537 76.0001H0.0585938V71.1632L5.56261 66.4932H41.033L46.537 71.1632V76.0001ZM1.3373 74.7214H45.2583V71.7192L40.5326 67.7163H6.00738L1.2817 71.7192L1.3373 74.7214Z" />
<path d="M41.033 9.50697H5.56261L0.0585938 4.83688V0H46.537V4.83688L41.033 9.50697ZM6.11858 8.22823H40.5882L45.3139 4.22533V1.22312H1.3929V4.22533L6.11858 8.22823Z" />
<path d="M5.17534 67.605C4.39699 65.1588 4.00781 62.657 4.00781 60.0439C4.00781 49.3695 10.6238 40.3073 19.7971 38.3614V34.5253C10.6238 32.5795 4.00781 23.5173 4.00781 12.8428C4.00781 11.3973 4.11901 9.95179 4.39699 8.56189L5.62012 8.78425C5.39773 10.1186 5.28654 11.5085 5.28654 12.8428C5.28654 23.1281 11.7357 31.7455 20.5755 33.3578L21.0758 33.469V39.4178L20.5755 39.529C11.7357 41.1413 5.28654 49.7587 5.28654 60.0439C5.28654 62.4902 5.67571 64.9364 6.39846 67.2159L5.17534 67.605Z" />
<path d="M41.8124 67.2159L40.5893 66.8267C41.2564 64.6584 41.59 62.379 41.59 60.0439C41.59 50.0366 35.3632 41.4748 26.8014 39.6401L26.301 39.529V33.4134L26.8014 33.3022C35.3632 31.4675 41.59 22.8501 41.59 12.8984C41.59 11.5085 41.4788 10.063 41.2008 8.67308L42.4239 8.45068C42.7019 9.89618 42.8131 11.3973 42.8131 12.8984C42.8131 23.2949 36.4195 32.2458 27.5241 34.4697V38.5838C36.4195 40.8077 42.8131 49.7587 42.8131 60.1551C42.8687 62.4902 42.5351 64.8808 41.8124 67.2159Z" />
</svg>
